<?xml version="1.0" standalone="no"?>
<!DOCTYPE svg PUBLIC "-//W3C//DTD SVG 20010904//EN"
 "http://www.w3.org/TR/2001/REC-SVG-20010904/DTD/svg10.dtd">
<svg version="1.0" xmlns="http://www.w3.org/2000/svg"
 width="512.000000pt" height="512.000000pt" viewBox="0 0 512.000000 512.000000"
 preserveAspectRatio="xMidYMid meet">
<metadata>
Created by potrace 1.11, written by Peter Selinger 2001-2013
</metadata>
<g transform="translate(0.000000,512.000000) scale(0.100000,-0.100000)"
fill="#000000" stroke="none">
<path d="M720 4547 c-49 -16 -133 -102 -148 -153 -9 -32 -12 -457 -12 -1840
l0 -1799 24 -51 c27 -59 90 -116 145 -132 55 -17 3607 -17 3662 0 55 16 118
73 145 132 l24 51 0 1793 c0 1345 -3 1805 -12 1840 -15 60 -94 142 -154 160
-56 16 -3621 16 -3674 -1z m1550 -509 c33 -17 51 -35 68 -68 l22 -44 0 -1366
0 -1366 -23 -44 c-16 -33 -34 -51 -67 -67 -44 -23 -47 -23 -510 -23 -463 0
-466 0 -510 23 -33 16 -51 34 -68 67 l-22 44 0 1366 0 1366 23 44 c16 33 34
51 67 68 44 22 47 22 510 22 463 0 466 0 510 -22z m1600 0 c33 -17 51 -35 68
-68 l22 -44 0 -916 0 -916 -22 -44 c-17 -33 -35 -51 -68 -67 -44 -23 -47 -23
-510 -23 -463 0 -466 0 -510 22 -33 17 -51 35 -67 68 l-23 44 0 916 0 916 23
44 c16 33 34 51 67 68 44 22 47 22 510 22 463 0 466 0 510 -22z"/>
</g>
</svg>
