<svg version="1" xmlns="http://www.w3.org/2000/svg" width="1365.333" height="1365.333" viewBox="0 0 1024.000000 1024.000000"><path d="M150.1 113.1c-12 2.3-26.1 12.8-31.9 23.7-6.7 12.5-6.2-17.6-6.2 375.7 0 389.2-.4 361.9 5.5 373.4 3.5 7.1 12.5 16.3 19.3 19.9 12.5 6.7-17.6 6.2 375.2 6.2s362.7.5 375.2-6.2c6.8-3.6 15.7-12.8 19.3-19.7 5.9-11.8 5.5 16.6 5.5-373.7 0-393.2.5-363.1-6.2-375.6-6-11.3-19.8-21.3-32.7-23.8-6.7-1.3-716.5-1.2-723 .1zm303 102.1c7.1 3.6 12.5 8.9 15.8 15.8l2.6 5.5.3 271.5c.2 200 0 273.1-.9 277.5-2.6 13.8-11.1 22.5-24.7 25.4-7.4 1.6-181 1.6-188.4 0-10.7-2.3-18-8.1-22.7-17.9l-2.6-5.5v-551l2.6-5.5c3-6.2 6.2-9.9 12-13.7 8-5.3 6.3-5.2 106.9-5l93.5.2 5.6 2.7zm320 0c7.1 3.6 12.5 8.9 15.8 15.8l2.6 5.5.3 181.5c.2 132.9 0 183.1-.8 187.5-2.7 13.8-11.2 22.5-24.8 25.4-7.4 1.6-181 1.6-188.4 0-10.7-2.3-18-8.1-22.7-17.9l-2.6-5.5v-371l2.6-5.5c3-6.2 6.2-9.9 12-13.7 8-5.3 6.3-5.2 106.9-5l93.5.2 5.6 2.7z"/></svg>