<?xml version="1.0" encoding="UTF-8"?>
<svg width="24px" height="24px" viewBox="0 0 24 24" version="1.1" xmlns="http://www.w3.org/2000/svg" xmlns:xlink="http://www.w3.org/1999/xlink">
    <!-- Generator: Sketch 45.2 (43514) - http://www.bohemiancoding.com/sketch -->
    <title>activity</title>
    <desc>Created with Sketch.</desc>
    <defs></defs>
    <g id="Icons" stroke="none" stroke-width="1" fill="none" fill-rule="evenodd">
        <g id="activity" fill-rule="nonzero" fill="#959DA1">
            <g id="activity-md" transform="translate(3.500000, 5.000000)">
                <path d="M6.60028291,2 C6.07957217,2 5.65745271,1.55228475 5.65745271,1 C5.65745271,0.44771525 6.07957217,0 6.60028291,0 L15.5571698,0 C16.0778805,0 16.5,0.44771525 16.5,1 C16.5,1.55228475 16.0778805,2 15.5571698,2 L6.60028291,2 Z M6.60028291,6 C6.07957217,6 5.65745271,5.55228475 5.65745271,5 C5.65745271,4.44771525 6.07957217,4 6.60028291,4 L15.5571698,4 C16.0778805,4 16.5,4.44771525 16.5,5 C16.5,5.55228475 16.0778805,6 15.5571698,6 L6.60028291,6 Z M6.60028291,10 C6.07957217,10 5.65745271,9.55228475 5.65745271,9 C5.65745271,8.44771525 6.07957217,8 6.60028291,8 L15.5571698,8 C16.0778805,8 16.5,8.44771525 16.5,9 C16.5,9.55228475 16.0778805,10 15.5571698,10 L6.60028291,10 Z M6.60028291,14 C6.07957217,14 5.65745271,13.5522847 5.65745271,13 C5.65745271,12.4477153 6.07957217,12 6.60028291,12 L15.5571698,12 C16.0778805,12 16.5,12.4477153 16.5,13 C16.5,13.5522847 16.0778805,14 15.5571698,14 L6.60028291,14 Z M2,3 C1.17157288,3 0.5,2.32842712 0.5,1.5 C0.5,0.671572875 1.17157288,0 2,0 C2.82842712,0 3.5,0.671572875 3.5,1.5 C3.5,2.32842712 2.82842712,3 2,3 Z M2,11 C1.17157288,11 0.5,10.3284271 0.5,9.5 C0.5,8.67157288 1.17157288,8 2,8 C2.82842712,8 3.5,8.67157288 3.5,9.5 C3.5,10.3284271 2.82842712,11 2,11 Z" id="Combined-Shape"></path>
            </g>
        </g>
    </g>
</svg>