<?xml version="1.0" encoding="UTF-8"?>
<svg width="24px" height="24px" viewBox="0 0 24 24" version="1.1" xmlns="http://www.w3.org/2000/svg" xmlns:xlink="http://www.w3.org/1999/xlink">
    <!-- Generator: Sketch 45.2 (43514) - http://www.bohemiancoding.com/sketch -->
    <title>admin</title>
    <desc>Created with Sketch.</desc>
    <defs></defs>
    <g id="Icons" stroke="none" stroke-width="1" fill="none" fill-rule="evenodd">
        <g id="admin" fill-rule="nonzero" fill="#959DA1">
            <g id="icon" transform="translate(3.700000, 3.800000)">
                <path d="M14.6386367,8.93081318 C15.0388492,9.31447857 15.6743079,9.30106442 16.0579733,8.90085185 C16.4416387,8.50063927 16.4282245,7.86518062 16.0280119,7.48151523 L8.54074904,0.303820729 L0.663297017,7.46329143 C0.253019711,7.83617448 0.222705678,8.47105139 0.59558873,8.8813287 C0.968471783,9.29160601 1.60334869,9.32192004 2.013626,8.94903699 L8.50421496,3.05002531 L14.6386367,8.93081318 Z" id="Path-2"></path>
                <path d="M8.50421496,9.74233285 L14.6386367,15.6231207 C15.0388492,16.0067861 15.6743079,15.993372 16.0579733,15.5931594 C16.4416387,15.1929468 16.4282245,14.5574882 16.0280119,14.1738228 L8.54074904,6.99612827 L0.663297017,14.155599 C0.253019711,14.528482 0.222705678,15.1633589 0.59558873,15.5736362 C0.968471783,15.9839136 1.60334869,16.0142276 2.013626,15.6413445 L8.50421496,9.74233285 Z" id="Path-2-Copy"></path>
            </g>
        </g>
    </g>
</svg>