<?xml version="1.0" encoding="UTF-8"?>
<svg width="24px" height="24px" viewBox="0 0 24 24" version="1.1" xmlns="http://www.w3.org/2000/svg" xmlns:xlink="http://www.w3.org/1999/xlink">
    <!-- Generator: Sketch 45.2 (43514) - http://www.bohemiancoding.com/sketch -->
    <title>appstore</title>
    <desc>Created with Sketch.</desc>
    <defs></defs>
    <g id="Icons" stroke="none" stroke-width="1" fill="none" fill-rule="evenodd">
        <g id="appstore" fill="#959DA1">
            <g id="app-store" transform="translate(4.000000, 4.000000)">
                <path d="M0,9.77111418 L0,7.53112325 C0,7.32588127 0.163374915,7.15806399 0.363558144,7.15806399 L4.20016448,7.15806399 L2.52977368,10.1445522 L0.363558144,10.1445522 C0.163374915,10.1445522 0,9.97709639 0,9.77112278 L0,9.77111418 Z M2.73297358,14.3578529 L1.50862421,15.2136461 C1.3438243,15.329191 1.22737436,15.2560114 1.25013268,15.0520605 L1.4135076,13.5877113 C1.43626592,13.3837604 1.59662417,13.3004844 1.76995741,13.4024641 L2.71749858,13.9609599 C2.89065683,14.0633011 2.89776516,14.2426781 2.73296524,14.3578615 L2.73297358,14.3578529 Z M3.02702342,13.5324952 L2.07946558,12.9738359 C1.90613234,12.8716668 1.84515737,12.6427804 1.94595732,12.464686 L6.33368837,4.61764253 C6.43323832,4.43936734 6.65759653,4.37682642 6.83075478,4.48026941 L7.77830428,5.03747406 C7.95163753,5.14091705 8.01119583,5.36999275 7.91182088,5.54771707 L3.5240815,13.3953114 C3.42469822,13.5732251 3.200165,13.6342942 3.02701509,13.5325038 L3.02702342,13.5324952 Z M6.36639668,10.1445435 L8.03679581,7.15806399 L8.99857031,7.15806399 L10.3550196,10.1445435 L6.36639668,10.1445435 L6.36639668,10.1445435 Z M11.8067522,11.0357301 C11.4275524,10.8404038 9.53830337,6.36315909 9.05403695,5.19502278 C8.56959554,4.02687786 7.10648797,0.917330586 7.57972939,0.675412736 C7.91643754,0.501906011 9.12514525,2.95044414 10.0312864,4.42047423 C10.9361693,5.89051293 12.82826,9.68087484 13.0611515,10.1124468 C13.2927931,10.5452926 12.8382183,10.9058712 12.5854184,11.0139105 C12.3324352,11.1219326 12.185952,11.2296018 11.8067522,11.0357301 Z M13.0483515,13.0935984 L12.4773268,12.1673799 C12.3594602,11.9747994 12.4206185,11.7369097 12.6122601,11.6353001 L13.1562598,11.3479011 C13.3480847,11.2472038 13.5880846,11.3288272 13.6903012,11.5303939 L14.1406176,12.4199365 C14.2430176,12.621133 14.173326,12.879379 13.9886177,12.9930991 L13.5994596,13.2320733 C13.4147513,13.3472567 13.1662098,13.284535 13.0483515,13.0935984 L13.0483515,13.0935984 Z M15.1491504,15.5230627 C15.0298588,15.1307402 14.1192843,15.104703 13.7116345,14.513749 C13.3025681,13.9248177 13.6407012,13.6214606 13.7827512,13.4813332 C15.4360836,12.5248427 15.1491504,15.5230627 15.1491504,15.5230627 L15.1491504,15.5230627 Z M15.9999917,9.77112278 C15.9999917,9.97708778 15.8366168,10.1445435 15.6364335,10.1445435 L13.7159095,10.1445435 C13.6947595,10.0293601 13.6604429,9.91417675 13.6023096,9.80614604 C13.5525346,9.71426271 13.4261347,9.46647465 13.2499598,9.12092445 C12.9957349,8.62223248 12.6307601,7.90913172 12.240002,7.15806399 L15.6362669,7.15806399 C15.8364418,7.15806399 15.999825,7.32588127 15.999825,7.53112325 L15.999825,9.77111418 L16,9.77111418 L15.9999917,9.77112278 Z" id="Shape"></path>
            </g>
        </g>
    </g>
</svg>