<?xml version="1.0" encoding="UTF-8"?>
<svg width="24px" height="24px" viewBox="0 0 24 24" version="1.1" xmlns="http://www.w3.org/2000/svg" xmlns:xlink="http://www.w3.org/1999/xlink">
    <!-- Generator: Sketch 45.2 (43514) - http://www.bohemiancoding.com/sketch -->
    <title>archive</title>
    <desc>Created with Sketch.</desc>
    <defs></defs>
    <g id="Icons" stroke="none" stroke-width="1" fill="none" fill-rule="evenodd">
        <g id="archive" fill="#959DA1">
            <g transform="translate(5.000000, 4.000000)">
                <path d="M0.00717785543,5.00678022 L0.00717785543,14.3813699 C0.00717785543,15.2753214 0.734302199,16 1.63127216,16 L12.4097019,16 C13.3066549,16 13.9952649,15.2753214 13.9952649,14.3813699 L13.9952649,5.00678022 L0.00717785543,5.00678022 Z M12.0241178,7.00040885 L12.0241178,13.2226473 C12.0241178,13.6521913 11.6869303,14.0004089 11.271065,14.0004089 L2.72274977,14.0004089 C2.30685306,14.0004089 1.96969697,13.6522318 1.96969697,13.2226473 L1.96969697,7.00040885 L12.0241178,7.00040885 Z M3.98099136,9 L9.98699075,9 C10.5248121,9 10.9608043,9.44784153 10.9608043,10.0002044 C10.9608043,10.552609 10.5249338,11.0004089 9.98699075,11.0004089 L3.98099136,11.0004089 C3.44317,11.0004089 3.00717786,10.5525673 3.00717786,10.0002044 C3.00717786,9.44779986 3.44304828,9 3.98099136,9 Z" id="Shape"></path>
                <path d="M1.16439899,3.98639392 L13.164399,1.98639392 C13.7091693,1.89559887 14.077189,1.38037133 13.9863939,0.835601013 C13.8955989,0.290830691 13.3803713,-0.0771889774 12.835601,0.0136060762 L0.835601013,2.01360608 C0.290830691,2.10440113 -0.0771889774,2.61962867 0.0136060762,3.16439899 C0.10440113,3.70916931 0.619628666,4.07718898 1.16439899,3.98639392 Z" id="Line" fill-rule="nonzero"></path>
            </g>
        </g>
    </g>
</svg>