<?xml version="1.0" encoding="UTF-8"?>
<svg width="24px" height="24px" viewBox="0 0 24 24" version="1.1" xmlns="http://www.w3.org/2000/svg" xmlns:xlink="http://www.w3.org/1999/xlink">
    <!-- Generator: Sketch 45.2 (43514) - http://www.bohemiancoding.com/sketch -->
    <title>attachments</title>
    <desc>Created with Sketch.</desc>
    <defs></defs>
    <g id="Icons" stroke="none" stroke-width="1" fill="none" fill-rule="evenodd">
        <g id="attachments" fill-rule="nonzero" fill="#959DA1">
            <g id="attachment" transform="translate(3.850000, 3.700000)">
                <path d="M1.99265201,8.72894174 C2.66551705,8.06909339 2.66551705,8.06909339 4.68411145,6.08952624 C6.18242995,4.62016131 6.18242995,4.62016131 7.13042402,3.69044031 C8.8171853,2.03567455 10.7246394,1.90265248 12.599163,3.74074239 C14.2737812,5.38281228 14.4777996,7.15019634 13.0100281,8.58974146 L8.63052415,12.8850241 C6.8957583,14.5867499 6.13322936,14.5509698 4.95007651,13.3905699 C3.70351661,12.1679823 3.83436963,11.1547313 4.69756445,10.3070715 C5.02532696,9.98581467 5.77471921,9.25096366 6.82217554,8.22372231 C8.21708241,6.85570411 8.21708241,6.85570411 9.00676008,6.08121255 C9.44123693,5.65541249 9.86976951,5.57952062 10.1769137,5.88075824 C10.5175389,6.2148329 10.5089761,6.47844789 10.0868701,6.89243644 C9.84935833,7.12556871 9.13141734,7.82975545 8.08311209,8.85785036 C6.51694517,10.3937786 6.51694517,10.3937786 5.99498135,10.905635 C5.58384524,11.3088098 5.5837999,11.9625298 5.99488008,12.3657594 C6.40596025,12.7689891 7.07249825,12.7690335 7.48363436,12.3658587 C8.00561613,11.8539847 8.00561613,11.8539847 9.57155787,10.3182773 C10.6204585,9.28959849 11.338394,8.58541712 11.5759248,8.35226604 C12.7994846,7.1522364 12.8504684,5.58264962 11.665668,4.42063384 C10.3959702,3.17535328 8.68380205,3.47857323 7.51828664,4.62081281 C6.72834012,5.39556795 6.72834012,5.39556795 5.33377182,6.76325411 C4.28618151,7.79062686 3.53684272,8.52542544 3.20857634,8.84717677 C1.59440391,10.4322981 1.29782877,12.7288065 3.46132222,14.8506943 C5.43659791,16.7879839 7.52892938,16.8861623 10.1193486,14.3450797 L14.4987823,10.0498659 C16.8726884,7.72161182 16.5198844,4.66531673 14.0877614,2.28046503 C11.3401385,-0.41375432 8.10703419,-0.188284047 5.64157026,2.23041348 C4.69374176,3.1599721 4.69374176,3.1599721 3.19550081,4.62926097 C1.17684602,6.60888734 1.17684602,6.60888734 0.503984551,7.2687322 C0.0928524323,7.6719109 0.0928135603,8.32563086 0.503897728,8.72885659 C0.914981897,9.13208232 1.58151989,9.13212045 1.99265201,8.72894174 Z" id="Page-1"></path>
            </g>
        </g>
    </g>
</svg>