<?xml version="1.0" encoding="UTF-8"?>
<svg width="24px" height="24px" viewBox="0 0 24 24" version="1.1" xmlns="http://www.w3.org/2000/svg" xmlns:xlink="http://www.w3.org/1999/xlink">
    <!-- Generator: Sketch 45.2 (43514) - http://www.bohemiancoding.com/sketch -->
    <title>box</title>
    <desc>Created with Sketch.</desc>
    <defs></defs>
    <g id="Icons" stroke="none" stroke-width="1" fill="none" fill-rule="evenodd">
        <g id="box" fill="#959DA1">
            <g transform="translate(4.000000, 7.000000)" id="Shape">
                <path d="M8.59663407,2.65624255 C7.40698397,2.65624255 6.37388388,3.33839077 5.85188383,4.33963441 C5.32988379,3.33824063 4.29679203,2.65624255 3.1071336,2.65624255 C2.40794187,2.65624255 1.76267515,2.89196913 1.24343344,3.2894955 L1.24343344,0.620741365 L1.24315011,0.620741365 C1.23587511,0.276756228 0.960708415,0 0.62171672,0 C0.282583357,0 0.00755833398,0.276756228 0.000291666692,0.620741365 L0,0.620741365 L0,5.87706614 L0.00130833345,5.87706614 C0.0289250025,7.60249692 1.40842512,8.99296759 3.10714193,8.99296759 C4.29679203,8.99296759 5.32989212,8.31083605 5.85189217,7.30944227 C6.37389221,8.31082771 7.40697563,8.99296759 8.5966424,8.99296759 C10.3126425,8.99296759 11.703776,7.57441259 11.703776,5.82468431 C11.703776,4.07480589 10.3126509,2.65625089 8.59663407,2.65625089 L8.59663407,2.65624255 Z M15.8834014,7.99595286 L14.2921096,5.82701146 L15.8834014,3.65807007 L15.8831097,3.65791993 C16.0799347,3.37854461 16.022943,2.98873371 15.7517013,2.78109147 C15.4806013,2.57344923 15.097568,2.62627314 14.8894096,2.89677357 L14.8892596,2.89662344 L13.5158678,4.76873168 L12.1426177,2.89662344 L12.1423344,2.89691537 C11.934026,2.626123 11.551001,2.57344923 11.2798926,2.78109147 C11.0087926,2.98873371 10.9516676,3.37854461 11.1486343,3.65791993 L11.1483426,3.65807007 L12.7394844,5.82701146 L11.1483426,7.99595286 L11.1486343,7.99609466 C10.9516676,8.27546998 11.0087926,8.66528922 11.2798926,8.87292311 C11.5509927,9.08056536 11.934026,9.02789159 12.1423344,8.75709922 L12.142626,8.75739115 L13.5158762,6.88529125 L14.8892596,8.75739115 L14.8894096,8.75724935 C15.0977096,9.02789159 15.480743,9.08056536 15.7517013,8.87307325 C16.0228014,8.66543101 16.0799347,8.27561177 15.883118,7.99609466 L15.8834014,7.99595286 Z M8.59663407,7.72501035 C7.56731731,7.72501035 6.73307558,6.87408087 6.73307558,5.82453417 C6.73307558,4.77483733 7.56745898,3.92405799 8.59663407,3.92405799 C9.62595082,3.92405799 10.4603342,4.77484568 10.4603342,5.82453417 C10.4603342,6.87408921 9.62580916,7.72501035 8.59663407,7.72501035 Z M3.1071336,7.72501035 C2.07782518,7.72501035 1.24343344,6.87408087 1.24343344,5.82453417 C1.24343344,4.77483733 2.07782518,3.92405799 3.10714193,3.92405799 C4.13645869,3.92405799 4.97084209,4.77484568 4.97084209,5.82453417 C4.97084209,6.87408921 4.13645869,7.72501035 3.10714193,7.72501035 L3.1071336,7.72501035 Z"></path>
            </g>
        </g>
    </g>
</svg>