<?xml version="1.0" encoding="UTF-8"?>
<svg width="24px" height="24px" viewBox="0 0 24 24" version="1.1" xmlns="http://www.w3.org/2000/svg" xmlns:xlink="http://www.w3.org/1999/xlink">
    <!-- Generator: Sketch 45.2 (43514) - http://www.bohemiancoding.com/sketch -->
    <title>businessclass</title>
    <desc>Created with Sketch.</desc>
    <defs></defs>
    <g id="Icons" stroke="none" stroke-width="1" fill="none" fill-rule="evenodd">
        <g id="businessclass" fill="#959DA1">
            <g id="case" transform="translate(4.000000, 5.000000)">
                <path d="M10.0010376,4.00195312 L10.0010376,2.76782676 C10.0010376,2.3390023 9.56397788,2 9.0080209,2 L6.9940543,2 C6.44338812,2 6.0010376,2.34413927 6.0010376,2.76782676 L6.0010376,4.00195312 L10.0010376,4.00195312 Z M12.0055648,4.00415039 L14.0101318,4.00415039 L14.0101318,14.0033569 L2.0010376,14.0033569 L2.0010376,4.00415039 L3.95982685,4.00415039 L3.95982685,2.7654557 C3.95982685,1.23813669 5.36128745,0 7.09355756,0 L8.8718341,0 C10.6025458,0 12.0055648,1.2274885 12.0055648,2.7654557 L12.0055648,4.00415039 Z M12.0055648,9.12174385 L12.0055648,6.78256397 C12.0055648,6.32085727 11.6417012,5.94597595 11.1923396,5.94597595 L9.79853314,5.94597595 C9.34917154,5.94597595 8.98530794,6.32085727 8.98530794,6.78256397 L8.98530794,9.12174385 C8.98530794,9.58242907 9.34917154,9.95628892 9.79853314,9.95628892 L11.1923396,9.95628892 C11.6417012,9.95628892 12.0055648,9.58242907 12.0055648,9.12174385 Z M7.01737993,11.2550087 L7.01737993,6.78256397 C7.01737993,6.32085727 6.65351633,5.94597595 6.20514889,5.94597595 L4.77305205,5.94597595 C4.32369045,5.94597595 3.95982685,6.32085727 3.95982685,6.78256397 L3.95982685,11.2550087 C3.95982685,11.715694 4.32369045,12.0895538 4.77305205,12.0895538 L6.20514889,12.0895538 C6.65351633,12.0895538 7.01737993,11.715694 7.01737993,11.2550087 Z" id="Combined-Shape" fill-rule="nonzero"></path>
                <path d="M0.989894378,3.97973633 L0.989894378,14.0218506 C0.989894378,14.0218506 -0.00829775076,13.9722952 8.28226173e-14,13.0140381 C0.00829775076,12.055781 1.80300199e-13,5.56429437 1.60316184e-13,4.84550168 C1.40110125e-13,4.12670898 0.989894378,3.97973633 0.989894378,3.97973633 Z" id="Path-7"></path>
                <path d="M15.9898944,3.97973633 L15.9898944,14.0218506 C15.9898944,14.0218506 14.9917022,13.9722952 15,13.0140381 C15.0082978,12.055781 15,5.56429437 15,4.84550168 C15,4.12670898 15.9898944,3.97973633 15.9898944,3.97973633 Z" id="Path-7-Copy" transform="translate(15.499949, 9.000793) scale(-1, 1) translate(-15.499949, -9.000793) "></path>
            </g>
        </g>
    </g>
</svg>