<?xml version="1.0" encoding="UTF-8"?>
<svg width="24px" height="24px" viewBox="0 0 24 24" version="1.1" xmlns="http://www.w3.org/2000/svg" xmlns:xlink="http://www.w3.org/1999/xlink">
    <!-- Generator: Sketch 45.2 (43514) - http://www.bohemiancoding.com/sketch -->
    <title>calendar</title>
    <desc>Created with Sketch.</desc>
    <defs></defs>
    <g id="Icons" stroke="none" stroke-width="1" fill="none" fill-rule="evenodd">
        <g id="calendar" fill-rule="nonzero" fill="#959DA1">
            <g transform="translate(3.200000, 4.000000)">
                <path d="M14.8021972,4.00128174 L2.79957271,4.00128174 L2.79957271,13.0112457 L14.8021972,13.0112457 L14.8021972,4.00128174 Z M0.805685313,2.01150743 L16.8090314,2.01150743 L16.8049734,15 L0.805685313,15 L0.805685313,2.01150743 Z" id="Rectangle"></path>
                <path d="M4.79499995,2 L4.79499995,4 C4.79499995,4.55504617 5.24495378,5.005 5.79999995,5.005 C6.35504613,5.005 6.80499995,4.55504617 6.80499995,4 L6.80499995,2 C6.80499995,1.44495383 6.35504613,0.995 5.79999995,0.995 C5.24495378,0.995 4.79499995,1.44495383 4.79499995,2 Z" id="Line"></path>
                <path d="M10.795,2 L10.795,4 C10.795,4.55504617 11.2449538,5.005 11.8,5.005 C12.3550461,5.005 12.805,4.55504617 12.805,4 L12.805,2 C12.805,1.44495383 12.3550461,0.995 11.8,0.995 C11.2449538,0.995 10.795,1.44495383 10.795,2 Z" id="Line"></path>
                <path d="M11.0893576,7.71064232 C11.4818346,8.10311923 12.1181654,8.10311923 12.5106423,7.71064232 C12.9031192,7.3181654 12.9031192,6.6818346 12.5106423,6.28935768 C12.1181654,5.89688077 11.4818346,5.89688077 11.0893576,6.28935768 C10.6968807,6.6818346 10.6968807,7.3181654 11.0893576,7.71064232 Z" id="Line-Copy"></path>
                <path d="M8.08935764,7.71064232 C8.48183455,8.10311923 9.11816535,8.10311923 9.51064227,7.71064232 C9.90311918,7.3181654 9.90311918,6.6818346 9.51064227,6.28935768 C9.11816535,5.89688077 8.48183455,5.89688077 8.08935764,6.28935768 C7.69688072,6.6818346 7.69688072,7.3181654 8.08935764,7.71064232 Z" id="Line-Copy-2"></path>
                <path d="M5.08935764,7.71064232 C5.48183455,8.10311923 6.11816535,8.10311923 6.51064227,7.71064232 C6.90311918,7.3181654 6.90311918,6.6818346 6.51064227,6.28935768 C6.11816535,5.89688077 5.48183455,5.89688077 5.08935764,6.28935768 C4.69688072,6.6818346 4.69688072,7.3181654 5.08935764,7.71064232 Z" id="Line-Copy-3"></path>
                <path d="M10.795,10 C10.795,10.5550462 11.2449538,11.005 11.8,11.005 C12.3550461,11.005 12.805,10.5550462 12.805,10 C12.805,9.44495383 12.3550461,8.995 11.8,8.995 C11.2449538,8.995 10.795,9.44495383 10.795,10 Z" id="Line-Copy-6"></path>
                <path d="M7.79499995,10 C7.79499995,10.5550462 8.24495378,11.005 8.79999995,11.005 C9.35504613,11.005 9.80499995,10.5550462 9.80499995,10 C9.80499995,9.44495383 9.35504613,8.995 8.79999995,8.995 C8.24495378,8.995 7.79499995,9.44495383 7.79499995,10 Z" id="Line-Copy-5"></path>
                <path d="M4.79499995,10 C4.79499995,10.5550462 5.24495378,11.005 5.79999995,11.005 C6.35504613,11.005 6.80499995,10.5550462 6.80499995,10 C6.80499995,9.44495383 6.35504613,8.995 5.79999995,8.995 C5.24495378,8.995 4.79499995,9.44495383 4.79499995,10 Z" id="Line-Copy-4"></path>
            </g>
        </g>
    </g>
</svg>