<?xml version="1.0" encoding="UTF-8"?>
<svg width="24px" height="24px" viewBox="0 0 24 24" version="1.1" xmlns="http://www.w3.org/2000/svg" xmlns:xlink="http://www.w3.org/1999/xlink">
    <!-- Generator: Sketch 45.2 (43514) - http://www.bohemiancoding.com/sketch -->
    <title>camera</title>
    <desc>Created with Sketch.</desc>
    <defs></defs>
    <g id="Icons" stroke="none" stroke-width="1" fill="none" fill-rule="evenodd">
        <g id="camera" fill="#959DA1">
            <g transform="translate(4.000000, 4.500000)">
                <path d="M0,5.29064253 C0,4.30515172 0.716283333,3.50624915 1.60000833,3.50624915 L14.4,3.50624915 C15.2836583,3.50624915 16,4.30518359 16,5.29064253 L16,12.7280124 C16,13.7135032 15.2837167,14.5124058 14.3999917,14.5124058 L1.6,14.5124058 C0.716341667,14.5124058 0,13.7134713 0,12.7280124 L0,5.29064253 Z M2.02324619,6.25860899 C2.02324619,5.8362683 2.38147953,5.49390311 2.82318786,5.49390311 L13.2259105,5.49390311 C13.6677105,5.49390311 14.0258521,5.83624441 14.0258521,6.25860899 L14.0258521,11.7508933 C14.0258521,12.173234 13.6676188,12.5155992 13.2259105,12.5155992 L2.82318786,12.5155992 C2.38138786,12.5155992 2.02324619,12.1732579 2.02324619,11.7508933 L2.02324619,6.25860899 Z M11,1.25554634 C11,0.833205654 11.3731337,0.504382779 11.8333681,0.504382779 L15.1666319,0.504382779 C15.6268837,0.504382779 16,0.833237517 16,1.25554634 L16,2.50684334 L11,2.50684334 L11,1.76470588 L11,1.25554634 Z" id="Shape"></path>
                <path d="M8,11.5 C6.61928813,11.5 5.5,10.3807119 5.5,9 C5.5,7.61928813 6.61928813,6.5 8,6.5 C9.38071187,6.5 10.5,7.61928813 10.5,9 C10.5,10.3807119 9.38071187,11.5 8,11.5 Z M8,9.5 C8.27614237,9.5 8.5,9.27614237 8.5,9 C8.5,8.72385763 8.27614237,8.5 8,8.5 C7.72385763,8.5 7.5,8.72385763 7.5,9 C7.5,9.27614237 7.72385763,9.5 8,9.5 Z" id="Oval-5" fill-rule="nonzero"></path>
            </g>
        </g>
    </g>
</svg>