<svg xmlns="http://www.w3.org/2000/svg" xmlns:xlink="http://www.w3.org/1999/xlink" width="24" height="24" version="1.1" viewBox="0 0 24 24"><title>card</title><desc>Created with Sketch.</desc><g id="Icons" fill="none" fill-rule="evenodd" stroke="none" stroke-width="1"><g id="card" fill="#959DA1" fill-rule="nonzero"><g transform="translate(4.000000, 4.500000)"><path id="Rectangle" d="M2,12.4995463 L14,12.4995463 L14,2.51357819 L2,2.51357819 L2,12.4995463 Z M0,1.85759502 C0,1.14292926 0.607681274,0.563578187 1.33663106,0.563578187 L14.6633689,0.563578187 C15.4015699,0.563578187 16,1.1559419 16,1.85759502 L16,13.1981371 C16,13.9128029 15.3923187,14.4921539 14.6633689,14.4921539 L1.33663106,14.4921539 C0.598430109,14.4921539 0,13.8997902 0,13.1981371 L0,1.85759502 Z"/><polygon id="Line" points="1.176 9.558 14.899 9.558 14.899 7.608 1.176 7.608"/><polygon id="Line" points="9 7.97 9 12.809 11 12.809 11 7.97"/></g></g></g></svg>