<?xml version="1.0" encoding="UTF-8"?>
<svg width="24px" height="24px" viewBox="0 0 24 24" version="1.1" xmlns="http://www.w3.org/2000/svg" xmlns:xlink="http://www.w3.org/1999/xlink">
    <!-- Generator: Sketch 45.2 (43514) - http://www.bohemiancoding.com/sketch -->
    <title>checklist</title>
    <desc>Created with Sketch.</desc>
    <defs></defs>
    <g id="Icons" stroke="none" stroke-width="1" fill="none" fill-rule="evenodd">
        <g id="checklist" fill-rule="nonzero" fill="#959DA1">
            <g transform="translate(3.500000, 3.500000)">
                <path d="M5.92661115,7.24106949 C5.54097957,6.83832804 4.90187696,6.82445776 4.49913552,7.21008933 C4.09639407,7.59572091 4.08252379,8.23482352 4.46815536,8.63756496 L7.7999683,12.1172052 L15.8308963,4.08673447 C16.2251869,3.69246636 16.2252051,3.05321326 15.830937,2.6589227 C15.4366688,2.26463214 14.7974157,2.26461394 14.4031252,2.65888205 L7.83133261,9.23030045 L5.92661115,7.24106949 Z" id="Stroke-1"></path>
                <path d="M2.50676221,14.5028607 L2.50676221,2.49243195 L11.1398834,2.49243195 C11.6974786,2.49243195 12.1494988,2.11181888 12.1494988,1.5542237 C12.1494988,0.996628519 11.6974786,0.544608314 11.1398834,0.544608314 L0.544400452,0.544608314 L0.544400452,16.4382113 L16.5059684,16.4382113 L16.5059684,8.48076949 C16.5059684,7.92317431 16.0539482,7.4711541 15.4963531,7.4711541 C14.9387579,7.4711541 14.5047831,7.94240482 14.5047831,8.5 L14.5047831,14.5220912 L2.50676221,14.5028607 Z" id="Stroke-3"></path>
            </g>
        </g>
    </g>
</svg>