<?xml version="1.0" encoding="UTF-8"?>
<svg width="24px" height="24px" viewBox="0 0 24 24" version="1.1" xmlns="http://www.w3.org/2000/svg" xmlns:xlink="http://www.w3.org/1999/xlink">
    <!-- Generator: Sketch 45.2 (43514) - http://www.bohemiancoding.com/sketch -->
    <title>close</title>
    <desc>Created with Sketch.</desc>
    <defs></defs>
    <g id="Icons" stroke="none" stroke-width="1" fill="none" fill-rule="evenodd">
        <g id="close" fill-rule="nonzero" fill="#959DA1">
            <g id="x" transform="translate(12.035281, 11.568175) rotate(-315.000000) translate(-12.035281, -11.568175) translate(3.535281, 3.068175)">
                <path d="M9.85231628,7.81416658 L9.85231628,1.8067756 C9.85231628,1.25905519 9.40830116,0.815040065 8.86058075,0.815040065 C8.31286033,0.815040065 7.86884521,1.25905519 7.86884521,1.8067756 L7.86884521,7.81416658 L1.8067756,7.81416658 C1.25905519,7.81416658 0.815040065,8.2581817 0.815040065,8.80590212 C0.815040065,9.35362253 1.25905519,9.79763765 1.8067756,9.79763765 L7.86884521,9.79763765 L7.86884521,15.8233045 C7.86884521,16.3710249 8.31286033,16.8150401 8.86058075,16.8150401 C9.40830116,16.8150401 9.85231628,16.3710249 9.85231628,15.8233045 L9.85231628,9.79763765 L15.8233045,9.79763765 C16.3710249,9.79763765 16.8150401,9.35362253 16.8150401,8.80590212 C16.8150401,8.2581817 16.3710249,7.81416658 15.8233045,7.81416658 L9.85231628,7.81416658 Z" id="Combined-Shape"></path>
            </g>
        </g>
    </g>
</svg>