<?xml version="1.0" encoding="UTF-8"?>
<svg width="24px" height="24px" viewBox="0 0 24 24" version="1.1" xmlns="http://www.w3.org/2000/svg" xmlns:xlink="http://www.w3.org/1999/xlink">
    <!-- Generator: Sketch 45.2 (43514) - http://www.bohemiancoding.com/sketch -->
    <title>collections</title>
    <desc>Created with Sketch.</desc>
    <defs></defs>
    <g id="Icons" stroke="none" stroke-width="1" fill="none" fill-rule="evenodd">
        <g id="collections" fill="#959DA1">
            <g id="icon" transform="translate(4.000000, 4.000000)">
                <path d="M2,8 L2,14 L14,14 L14,8 L2,8 Z M2,6 L14,6 C15.1045695,6 16,6.8954305 16,8 L16,14 C16,15.1045695 15.1045695,16 14,16 L2,16 C0.8954305,16 1.3527075e-16,15.1045695 0,14 L0,8 C-1.3527075e-16,6.8954305 0.8954305,6 2,6 Z" id="Rectangle" fill-rule="nonzero"></path>
                <rect id="Rectangle-2" x="4" y="11" width="8" height="2"></rect>
                <rect id="Rectangle-3" x="4" y="9" width="2" height="3" rx="1"></rect>
                <rect id="Rectangle-3" x="10" y="9" width="2" height="3" rx="1"></rect>
                <rect id="Rectangle-2" x="2" y="3" width="12" height="2" rx="1"></rect>
                <rect id="Rectangle-2" x="4" y="0" width="8" height="2" rx="1"></rect>
            </g>
        </g>
    </g>
</svg>