<?xml version="1.0" encoding="UTF-8"?>
<svg width="24px" height="24px" viewBox="0 0 24 24" version="1.1" xmlns="http://www.w3.org/2000/svg" xmlns:xlink="http://www.w3.org/1999/xlink">
    <!-- Generator: Sketch 45.2 (43514) - http://www.bohemiancoding.com/sketch -->
    <title>comments</title>
    <desc>Created with Sketch.</desc>
    <defs></defs>
    <g id="Icons" stroke="none" stroke-width="1" fill="none" fill-rule="evenodd">
        <g id="comments" fill-rule="nonzero" fill="#959DA1">
            <g transform="translate(3.900000, 5.000000)" id="Page-1">
                <path d="M6.93222867,9.77192491 L7.41929734,9.80870833 C7.65376782,9.82641554 7.8801437,9.83542208 8.10047996,9.83542208 C11.5153074,9.83542208 14.0733941,7.92332553 14.0733941,5.96330451 C14.0733941,4.00295789 11.5155787,2.09118693 8.10047996,2.09118693 C4.68538125,2.09118693 2.12756578,4.00295789 2.12756578,5.96330451 C2.12756578,6.91937452 2.739745,7.9030117 3.9155249,8.6740149 L4.85334903,9.28898154 L4.85334903,10.7028521 L6.93222867,9.77192491 Z M8.10047996,0 C12.5064094,0 16.0783822,2.66934151 16.0783822,5.96330451 C16.0783822,9.25671277 12.5064094,11.926609 8.10047996,11.926609 C7.82178524,11.926609 7.54628168,11.9149598 7.27450115,11.8944349 L2.848361,13.8764709 L2.848361,10.4443811 C1.18097944,9.35101619 0.122577749,7.75174113 0.122577749,5.96330451 C0.122577749,2.66934151 3.6945505,0 8.10047996,0 Z"></path>
            </g>
        </g>
    </g>
</svg>