<?xml version="1.0" encoding="UTF-8"?>
<svg width="24px" height="24px" viewBox="0 0 24 24" version="1.1" xmlns="http://www.w3.org/2000/svg" xmlns:xlink="http://www.w3.org/1999/xlink">
    <!-- Generator: Sketch 45.2 (43514) - http://www.bohemiancoding.com/sketch -->
    <title>description</title>
    <desc>Created with Sketch.</desc>
    <defs></defs>
    <g id="Icons" stroke="none" stroke-width="1" fill="none" fill-rule="evenodd">
        <g id="description" fill-rule="nonzero" fill="#959DA1">
            <g transform="translate(4.250000, 4.750000)">
                <path d="M0.75,2.25 L14.75,2.25 C15.3022847,2.25 15.75,1.80228475 15.75,1.25 C15.75,0.69771525 15.3022847,0.25 14.75,0.25 L0.75,0.25 C0.19771525,0.25 -0.25,0.69771525 -0.25,1.25 C-0.25,1.80228475 0.19771525,2.25 0.75,2.25 Z" id="Stroke-1"></path>
                <path d="M0.75,6.25 L14.75,6.25 C15.3022847,6.25 15.75,5.80228475 15.75,5.25 C15.75,4.69771525 15.3022847,4.25 14.75,4.25 L0.75,4.25 C0.19771525,4.25 -0.25,4.69771525 -0.25,5.25 C-0.25,5.80228475 0.19771525,6.25 0.75,6.25 Z" id="Stroke-3"></path>
                <path d="M0.75,10.25 L14.75,10.25 C15.3022847,10.25 15.75,9.80228475 15.75,9.25 C15.75,8.69771525 15.3022847,8.25 14.75,8.25 L0.75,8.25 C0.19771525,8.25 -0.25,8.69771525 -0.25,9.25 C-0.25,9.80228475 0.19771525,10.25 0.75,10.25 Z" id="Stroke-5"></path>
                <path d="M0.75,14.25 L8.75,14.25 C9.30228475,14.25 9.75,13.8022847 9.75,13.25 C9.75,12.6977153 9.30228475,12.25 8.75,12.25 L0.75,12.25 C0.19771525,12.25 -0.25,12.6977153 -0.25,13.25 C-0.25,13.8022847 0.19771525,14.25 0.75,14.25 Z" id="Stroke-7"></path>
            </g>
        </g>
    </g>
</svg>