<?xml version="1.0" encoding="UTF-8"?>
<svg width="24px" height="24px" viewBox="0 0 24 24" version="1.1" xmlns="http://www.w3.org/2000/svg" xmlns:xlink="http://www.w3.org/1999/xlink">
    <!-- Generator: Sketch 45.2 (43514) - http://www.bohemiancoding.com/sketch -->
    <title>document</title>
    <desc>Created with Sketch.</desc>
    <defs></defs>
    <g id="Icons" stroke="none" stroke-width="1" fill="none" fill-rule="evenodd">
        <g id="document" fill-rule="nonzero" fill="#959DA1">
            <g transform="translate(4.000000, 4.000000)">
                <path d="M4,6 L6,6 C6.55228475,6 7,5.55228475 7,5 C7,4.44771525 6.55228475,4 6,4 L4,4 C3.44771525,4 3,4.44771525 3,5 C3,5.55228475 3.44771525,6 4,6 Z" id="Line"></path>
                <path d="M4,9 L8,9 C8.55228475,9 9,8.55228475 9,8 C9,7.44771525 8.55228475,7 8,7 L4,7 C3.44771525,7 3,7.44771525 3,8 C3,8.55228475 3.44771525,9 4,9 Z" id="Line-Copy-2"></path>
                <path d="M4,12 L8,12 C8.55228475,12 9,11.5522847 9,11 C9,10.4477153 8.55228475,10 8,10 L4,10 C3.44771525,10 3,10.4477153 3,11 C3,11.5522847 3.44771525,12 4,12 Z" id="Line-Copy-3"></path>
                <path d="M2.01419885,2 L2.01419885,14 L10,14 L10,4.8832097 L7.15791966,2 L2.01419885,2 Z M1.01419885,0 L7.57634761,0 C7.84405429,-1.50819355e-15 8.10058324,0.107338882 8.28851573,0.297991049 L11.7121681,3.77118906 C11.8966056,3.95829561 12,4.21046993 12,4.47319801 L12,15 C12,15.5522847 11.5522847,16 11,16 L1.01419885,16 C0.461914105,16 0.0141988548,15.5522847 0.0141988548,15 L0.0141988548,1 C0.0141988548,0.44771525 0.461914105,1.01453063e-16 1.01419885,0 Z" id="Rectangle-4"></path>
                <path d="M14.0033999,15.0277344 C14.0033999,15.5800191 14.4511151,16.0277344 15.0033999,16.0277344 C15.5556846,16.0277344 15.9953726,15.5800191 15.9953726,15.0277344 L15.9953726,2.61171757 L13.7201188,0.306149196 C13.3369156,-0.0915614258 12.7038598,-0.103322001 12.3061492,0.279881217 C11.9084386,0.663084434 11.896678,1.29614018 12.2798812,1.6938508 L14.0033999,3.41846512 L14.0033999,15.0277344 Z" id="Path-10"></path>
            </g>
        </g>
    </g>
</svg>