<?xml version="1.0" encoding="UTF-8"?>
<svg width="24px" height="24px" viewBox="0 0 24 24" version="1.1" xmlns="http://www.w3.org/2000/svg" xmlns:xlink="http://www.w3.org/1999/xlink">
    <!-- Generator: Sketch 45.2 (43514) - http://www.bohemiancoding.com/sketch -->
    <title>download</title>
    <desc>Created with Sketch.</desc>
    <defs></defs>
    <g id="Icons" stroke="none" stroke-width="1" fill="none" fill-rule="evenodd">
        <g id="download" fill-rule="nonzero" fill="#959DA1">
            <g id="arrow" transform="translate(3.600000, 2.600000)">
                <g id="Group-2" transform="translate(0.001786, 10.285000)">
                    <path d="M14.3965097,1.34516829 L14.3965097,5.07394345 C14.3965097,5.10304391 14.3973796,5.12603631 14.3682792,5.12603631 L2.45769179,5.12603631 C2.42859133,5.12603631 2.40559893,5.10304391 2.40559893,5.07394345 L2.40559893,1.33571434 C2.40559893,0.782443345 1.95693809,0.360931463 1.4036671,0.360931463 C0.850396101,0.360931463 0.414021446,0.782443345 0.414021446,1.33571434 L0.414021446,4.99944694 C0.414021446,6.13508939 1.25395051,7.05511131 2.38959295,7.05511131 L14.3682792,7.05511131 C15.5039216,7.05511131 16.3920535,6.13508939 16.3920535,4.99944694 L16.3920535,1.34516829 C16.3920535,0.791897297 15.9482427,0.343382537 15.3949717,0.343382537 C14.8417007,0.343382537 14.3965097,0.791897297 14.3965097,1.34516829 Z" id="Page-1"></path>
                </g>
                <g transform="translate(8.541428, 7.667857) scale(-1, 1) rotate(-270.000000) translate(-8.541428, -7.667857) translate(1.541428, 2.667857)" id="Combined-Shape">
                    <g transform="translate(7.257858, 5.000000) scale(-1, 1) translate(-7.257858, -5.000000) translate(0.757858, 0.000000)">
                        <path d="M4.63797811,3.85857185 L6.12863814,2.30362081 C6.51151606,1.90422966 6.49812945,1.27007528 6.0987383,0.887197355 C5.69934715,0.504319432 5.06519277,0.517706048 4.68231484,0.917097198 L0.932229383,4.82892093 L4.66412845,8.93507027 C5.03624616,9.34450549 5.66982,9.3747573 6.07925522,9.00263958 C6.48869044,8.63052187 6.51894225,7.99694803 6.14682454,7.58751281 L4.5787119,5.86214336 L11.9404325,5.86214336 C12.4881868,5.86214336 12.9322294,5.4136286 12.9322294,4.8603576 C12.9322294,4.30708661 12.4881868,3.85857185 11.9404325,3.85857185 L4.63797811,3.85857185 Z"></path>
                    </g>
                </g>
            </g>
        </g>
    </g>
</svg>