<?xml version="1.0" encoding="UTF-8"?>
<svg width="24px" height="24px" viewBox="0 0 24 24" version="1.1" xmlns="http://www.w3.org/2000/svg" xmlns:xlink="http://www.w3.org/1999/xlink">
    <!-- Generator: Sketch 45.2 (43514) - http://www.bohemiancoding.com/sketch -->
    <title>dropbox</title>
    <desc>Created with Sketch.</desc>
    <defs></defs>
    <g id="Icons" stroke="none" stroke-width="1" fill="none" fill-rule="evenodd">
        <g id="dropbox" fill="#959DA1">
            <g transform="translate(4.000000, 5.000000)" id="Shape">
                <path d="M4.70893333,0.00586666667 L0.005575,3.04001667 L3.25771667,5.613075 L7.999775,2.71970833 L4.70893333,0.00586666667 M0.00558333333,8.18635833 L4.70893333,11.2205083 L7.99976667,8.50621667 L3.257725,5.61308333 L0.00558333333,8.18636667 M7.999775,8.50644167 L11.291075,11.2207333 L15.9941917,8.18658333 L12.7422833,5.6133 L7.999775,8.50644167 M15.9941917,3.04001667 L11.2910667,0.00586666667 L7.999775,2.7197 L12.7422833,5.613075 L15.9942,3.04001667"></path>
                <polyline points="8.00955833 9.0903 4.70893333 11.7964833 3.29641667 10.8853333 3.29641667 11.9068583 8.00955 14.6993083 12.7226917 11.9068583 12.7226917 10.8853333 11.3101917 11.7964833 8.00955 9.0903"></polyline>
            </g>
        </g>
    </g>
</svg>