<svg xmlns="http://www.w3.org/2000/svg" xmlns:xlink="http://www.w3.org/1999/xlink" width="24" height="24" version="1.1" viewBox="0 0 24 24"><title>dropbox</title><desc>Created with Sketch.</desc><g id="Icons" fill="none" fill-rule="evenodd" stroke="none" stroke-width="1"><g id="dropbox" fill="#959DA1"><g id="Shape" transform="translate(4.000000, 5.000000)"><path d="M4.70893333,0.00586666667 L0.005575,3.04001667 L3.25771667,5.613075 L7.999775,2.71970833 L4.70893333,0.00586666667 M0.00558333333,8.18635833 L4.70893333,11.2205083 L7.99976667,8.50621667 L3.257725,5.61308333 L0.00558333333,8.18636667 M7.999775,8.50644167 L11.291075,11.2207333 L15.9941917,8.18658333 L12.7422833,5.6133 L7.999775,8.50644167 M15.9941917,3.04001667 L11.2910667,0.00586666667 L7.999775,2.7197 L12.7422833,5.613075 L15.9942,3.04001667"/><polyline points="8.01 9.09 4.709 11.796 3.296 10.885 3.296 11.907 8.01 14.699 12.723 11.907 12.723 10.885 11.31 11.796 8.01 9.09"/></g></g></g></svg>