<?xml version="1.0" encoding="UTF-8"?>
<svg width="24px" height="24px" viewBox="0 0 24 24" version="1.1" xmlns="http://www.w3.org/2000/svg" xmlns:xlink="http://www.w3.org/1999/xlink">
    <!-- Generator: Sketch 45.2 (43514) - http://www.bohemiancoding.com/sketch -->
    <title>duedate</title>
    <desc>Created with Sketch.</desc>
    <defs></defs>
    <g id="Icons" stroke="none" stroke-width="1" fill="none" fill-rule="evenodd">
        <g id="duedate" fill-rule="nonzero" fill="#959DA1">
            <g transform="translate(4.000000, 4.000000)">
                <path d="M14.0028514,7.9931348 C14.0028514,4.67412886 11.3128659,1.98481393 7.9932671,1.98481393 C4.6747641,1.98481393 1.98494624,4.67429649 1.98494624,7.9931348 C1.98494624,11.3122695 4.67506053,14.0027191 7.9932671,14.0027191 C11.3125694,14.0027191 14.0028514,11.3124371 14.0028514,7.9931348 Z M15.9874669,7.9931348 C15.9874669,12.40851 12.4086423,15.9873346 7.9932671,15.9873346 C3.57893229,15.9873346 0.000330769245,12.4082869 0.000330769245,7.9931348 C0.000330769245,3.57816824 3.57874662,0.000198461547 7.9932671,0.000198461547 C12.408828,0.000198461547 15.9874669,3.57794522 15.9874669,7.9931348 Z" id="Stroke-1"></path>
                <path d="M5.00635901,8 C4.45832258,8 3.98936008,8.46317067 3.98936008,9.0112071 C3.98936008,9.55924353 4.45832258,10.0052205 5.00635901,10.0052205 L8.99863388,10.0052205 L8.99863388,4.05661343 C8.99217433,3.50861507 8.54799836,3.00760975 8,3.0140693 C7.45200164,3.02052884 7.0019776,3.57883285 7.00843714,4.12683121 L7.00843714,8 L5.00635901,8 Z" id="Stroke-3"></path>
            </g>
        </g>
    </g>
</svg>