<svg xmlns="http://www.w3.org/2000/svg" xmlns:xlink="http://www.w3.org/1999/xlink" width="24" height="24" version="1.1" viewBox="0 0 24 24"><title>email</title><desc>Created with Sketch.</desc><g id="Icons" fill="none" fill-rule="evenodd" stroke="none" stroke-width="1"><g id="email" fill="#959DA1" fill-rule="nonzero"><g transform="translate(4.000000, 6.000000)"><path id="Rectangle" d="M2,2 L2,10 L14,10 L14,2 L2,2 Z M0,1.33005953 C0,0.595487935 0.607681274,0 1.33663106,0 L14.6633689,0 C15.4015699,0 16,0.595081866 16,1.33005953 L16,10.6699405 C16,11.4045121 15.3923187,12 14.6633689,12 L1.33663106,12 C0.598430109,12 0,11.4049181 0,10.6699405 L0,1.33005953 Z"/><polygon id="Path-5" points="1.381 .204 .19 1.819 8.003 6.987 15.733 1.861 14.624 .188 8 4.564"/></g></g></g></svg>