<?xml version="1.0" encoding="UTF-8"?>
<svg width="24px" height="24px" viewBox="0 0 24 24" version="1.1" xmlns="http://www.w3.org/2000/svg" xmlns:xlink="http://www.w3.org/1999/xlink">
    <!-- Generator: Sketch 45.2 (43514) - http://www.bohemiancoding.com/sketch -->
    <title>emoji</title>
    <desc>Created with Sketch.</desc>
    <defs></defs>
    <g id="Icons" stroke="none" stroke-width="1" fill="none" fill-rule="evenodd">
        <g id="emoji" fill-rule="nonzero" fill="#959DA1">
            <g transform="translate(4.000000, 4.000000)">
                <path d="M8,14 C11.3137085,14 14,11.3137085 14,8 C14,4.6862915 11.3137085,2 8,2 C4.6862915,2 2,4.6862915 2,8 C2,11.3137085 4.6862915,14 8,14 Z M8,16 C3.581722,16 0,12.418278 0,8 C0,3.581722 3.581722,0 8,0 C12.418278,0 16,3.581722 16,8 C16,12.418278 12.418278,16 8,16 Z" id="Oval"></path>
                <g id="Group" transform="translate(5.000000, 4.733334)">
                    <path d="M0,1.16666641 L0,2.36666641 C0,2.86372269 0.44771525,3.26666641 1,3.26666641 C1.55228475,3.26666641 2,2.86372269 2,2.36666641 L2,1.16666641 C2,0.669610138 1.55228475,0.266666412 1,0.266666412 C0.44771525,0.266666412 0,0.669610138 0,1.16666641 Z" id="Line"></path>
                    <path d="M4,1.16666641 L4,2.36666641 C4,2.86372269 4.44771525,3.26666641 5,3.26666641 C5.55228475,3.26666641 6,2.86372269 6,2.36666641 L6,1.16666641 C6,0.669610138 5.55228475,0.266666412 5,0.266666412 C4.44771525,0.266666412 4,0.669610138 4,1.16666641 Z" id="Line-Copy"></path>
                </g>
                <path d="M3.2223548,9.91098945 C3.41314568,10.3280256 3.77936633,10.8999378 4.35336809,11.4704891 C5.32548539,12.4367628 6.5679852,13.0275409 8.06885593,13.0275409 C9.57680115,13.0275409 10.8267778,12.4142216 11.8074881,11.4140023 C12.3836539,10.8263749 12.7527374,10.2386404 12.9454982,9.81191122 C13.1728547,9.30859478 12.9491451,8.71626728 12.4458286,8.48891071 C11.9425122,8.26155414 11.3501847,8.48526382 11.1228281,8.98858025 C11.0188904,9.21867492 10.7692691,9.61617605 10.379416,10.0137844 C9.75009475,10.6556246 8.99210995,11.0275409 8.06885593,11.0275409 C7.13852743,11.0275409 6.38362588,10.6686038 5.76331182,10.0520186 C5.38185476,9.67285457 5.13993077,9.29505148 5.04106328,9.07894411 C4.8113003,8.57672163 4.21790885,8.35584956 3.71568637,8.58561254 C3.21346389,8.81537552 2.99259182,9.40876697 3.2223548,9.91098945 Z" id="Path-2"></path>
            </g>
        </g>
    </g>
</svg>