<?xml version="1.0" encoding="UTF-8"?>
<svg width="24px" height="24px" viewBox="0 0 24 24" version="1.1" xmlns="http://www.w3.org/2000/svg" xmlns:xlink="http://www.w3.org/1999/xlink">
    <!-- Generator: Sketch 45.2 (43514) - http://www.bohemiancoding.com/sketch -->
    <title>export</title>
    <desc>Created with Sketch.</desc>
    <defs></defs>
    <g id="Icons" stroke="none" stroke-width="1" fill="none" fill-rule="evenodd">
        <g id="export" fill-rule="nonzero" fill="#959DA1">
            <g id="arrow" transform="translate(11.700000, 11.800000) scale(-1, 1) rotate(-270.000000) translate(-11.700000, -11.800000) translate(3.200000, 3.300000)">
                <g transform="translate(0.000000, 3.992308)" id="Combined-Shape">
                    <path d="M4.31115066,3.80068089 L5.67235206,2.38077193 C6.05381247,1.98285943 6.04047541,1.35105286 5.64256291,0.969592454 C5.24465041,0.588132047 4.61284384,0.601469102 4.23138343,0.9993816 L0.665384586,4.71917921 L4.21326437,8.62285505 C4.58400441,9.03077443 5.21523259,9.06091425 5.62315197,8.69017421 C6.03107135,8.31943417 6.06121116,7.68820599 5.69047113,7.28028661 L4.3422267,5.79683465 L12.4013799,5.79683465 C12.9526025,5.79683465 13.3994568,5.34998041 13.3994568,4.79875777 C13.3994568,4.24753513 12.9526025,3.80068089 12.4013799,3.80068089 L4.31115066,3.80068089 Z"></path>
                </g>
                <g id="body" transform="translate(5.988461, 0.000000)">
                    <path d="M2.66072054,13.9097964 C2.6612646,13.9294769 2.66153834,13.9492288 2.66153834,13.9690481 L2.66153834,14.1040325 C2.66153834,14.4651535 2.96834879,14.7715383 3.34004746,14.7715383 L7.9714905,14.7715383 C8.35372096,14.7715383 8.71165773,14.4744303 8.71165773,14.094802 L8.71165773,3.47135208 C8.71165773,3.09983518 8.34486119,2.79461577 7.9714905,2.79461577 L3.34004746,2.79461577 C2.95400921,2.79461577 2.66153834,3.08541268 2.66153834,3.44863522 C2.66153834,3.47168202 2.6611876,3.49462992 2.66049108,3.51747339 C2.66118674,3.53276383 2.66153834,3.54814396 2.66153834,3.5636062 L2.66153834,5.48517373 C2.66153834,6.03639637 2.2146841,6.48325061 1.66346147,6.48325061 C1.11223883,6.48325061 0.715600082,6.03639637 0.715600082,5.48517373 L0.715600082,5.47488693 C0.714429444,5.47488871 0.713258516,5.47488971 0.712087301,5.47488971 L0.712087301,3.44863522 C0.712087301,1.98498497 1.84950365,0.798462011 3.34004746,0.798462011 L7.9714905,0.798462011 C9.44866602,0.798462011 10.6461534,1.99874974 10.6461534,3.47135208 L10.6461534,14.094802 C10.6461534,15.5709984 9.46203432,16.7676921 7.9714905,16.7676921 L3.34004746,16.7676921 C1.99587588,16.7676921 0.921965195,15.7714755 0.739474057,14.4915998 C0.72141681,14.3649579 0.712087301,14.2355387 0.712087301,14.1040325 L0.712087301,13.9364223 C0.710746589,13.9141469 0.710067451,13.8916715 0.710067451,13.8690198 L0.710067451,11.9474522 C0.710067451,11.3962296 1.11223883,10.9493754 1.66346147,10.9493754 C2.2146841,10.9493754 2.66153834,11.3962296 2.66153834,11.9474522 L2.66153834,13.8690198 C2.66153834,13.8826778 2.661264,13.8962717 2.66072054,13.9097964 Z" id="Combined-Shape"></path>
                </g>
            </g>
        </g>
    </g>
</svg>