<?xml version="1.0" encoding="UTF-8"?>
<svg width="24px" height="24px" viewBox="0 0 24 24" version="1.1" xmlns="http://www.w3.org/2000/svg" xmlns:xlink="http://www.w3.org/1999/xlink">
    <!-- Generator: Sketch 45.2 (43514) - http://www.bohemiancoding.com/sketch -->
    <title>fogbugs</title>
    <desc>Created with Sketch.</desc>
    <defs></defs>
    <g id="Icons" stroke="none" stroke-width="1" fill="none" fill-rule="evenodd">
        <g id="fogbugs" fill="#959DA1">
            <g transform="translate(4.000000, 4.000000)" id="Shape">
                <path d="M13.3551245,1.24090538 C13.920118,1.8339204 14.2940107,2.60483992 14.3854067,3.39270274 C14.4269503,3.86711475 14.3854067,4.29069691 14.2857019,4.64650593 C14.1859972,5.00231494 14.069675,5.27340752 13.9948965,5.41742545 L13.9367354,5.51908517 C13.9699703,5.53602846 14.0198227,5.56144339 14.0779838,5.6038016 C14.1361449,5.64615982 14.2773932,5.79017775 14.5017288,6.01891212 C14.9337826,6.48485249 15.4904673,7.2134138 15.6898768,7.89114525 C15.7895815,8.23001098 15.8311251,8.48416028 15.8228164,8.66206478 L15.7978902,8.92468572 C15.7480379,8.83149765 15.6815681,8.704423 15.5901721,8.54346178 C15.4156888,8.23001098 14.8423866,7.36590338 14.4684939,7.01856601 L13.6126951,6.35777784 C13.5129903,6.38319277 13.18895,6.54415399 12.6322653,6.84913315 C12.1669766,7.0948108 11.6102919,7.25577202 11.3527213,7.26424366 L11.1533119,7.28118695 L10.7046406,10.2886203 C11.1450032,10.5597128 11.3194864,11.1273129 11.3527213,11.6356115 C11.3693388,11.8982325 11.3693388,12.1015519 11.3444126,12.2540415 L11.3111777,12.4827758 L11.8678624,12.7199819 C11.8761711,12.669152 11.8844798,12.6013789 11.8927886,12.5166624 C11.909406,12.3557012 11.9924933,11.8474026 12.1005067,11.5339518 C12.2002115,11.220501 12.3913122,10.9070502 12.6156478,10.9155219 C12.8067485,10.9155219 12.9064533,11.3136891 12.9064533,11.6271399 L12.9064533,11.8643459 C12.9313794,11.8304593 12.9729231,11.7881011 13.0144667,11.7287996 C13.1058627,11.6186682 13.4132856,11.2882742 13.64593,11.0934264 C13.8702656,10.8985786 14.1527623,10.746089 14.3106281,10.8392771 C14.4684939,10.9494084 14.4269503,11.2289727 14.2940107,11.5932533 C14.161071,11.9660056 13.9865878,12.3048713 13.8619569,12.5336057 L13.7622521,12.7030386 C13.9035005,12.6606804 14.1029099,12.5844356 14.5183463,12.5759639 C14.7260645,12.5759639 14.8506954,12.6267938 14.892239,12.7199819 C14.983635,12.8978864 14.8506954,13.143564 14.4934201,13.4400715 C13.7788696,14.0500298 12.6821176,14.5668001 12.2832987,14.5668001 C11.9758758,14.5668001 11.6186006,14.3465373 11.4274999,14.1093313 C11.3693388,14.0076716 11.3111777,13.8467104 11.2862515,13.7535223 L11.2613253,13.6772775 L10.571701,13.4739581 C10.297513,13.5671462 10.0150163,13.617976 9.73251957,13.617976 C9.47494904,13.617976 9.11767378,13.5586745 8.94319051,13.5163163 L8.81025088,13.4739581 C8.7853247,13.5163163 8.74378106,13.5756178 8.70223743,13.6518626 C8.61084143,13.7958805 8.28680108,14.2872358 7.99599564,14.6599881 C7.7051902,15.0327404 7.25651894,15.5156241 6.88262623,15.7951883 C6.77461278,15.8799048 6.64998187,15.922263 6.52535097,15.922263 C6.30101534,15.9137913 6.06006226,15.8121316 5.81080045,15.6257555 C5.702787,15.5325674 5.62800846,15.422436 5.5781561,15.2868897 C5.52830374,15.1513434 5.49506883,15.0750987 5.47845138,15.0496837 C4.84698813,14.2194627 3.79177981,13.5332596 2.32113514,12.9826028 C1.56504099,12.6860953 0.983430099,12.3557012 0.567993752,11.9914205 C-0.271187669,11.2713309 0.119322497,10.7799756 0.49321521,10.2208471 C0.684315929,9.9412829 0.850490468,9.72949182 1.00004755,9.58547389 L1.21607445,9.36521116 C1.20776573,9.28049473 1.20776573,9.16189173 1.199457,9.01787379 C1.19114827,8.72983793 1.24930936,7.84878704 1.44041008,7.33201681 C1.98878606,5.81559268 2.81135003,4.82441043 3.89979326,4.37541334 C4.1905987,4.25681034 4.53956523,4.15515062 4.95500158,4.07043419 C5.77756555,3.90947297 6.38410261,3.76545504 6.79123023,3.39270274 C7.02387459,3.18091166 7.3063713,2.68955636 7.53901566,2.24903091 C7.76335129,1.80850547 8.18709636,1.27479195 8.6606938,0.902039649 C9.13429123,0.537758993 9.9568552,0.266666412 10.9455937,0.266666412 C11.909406,0.266666412 12.7818224,0.647890354 13.3551245,1.24090538 Z"></path>
            </g>
        </g>
    </g>
</svg>