<?xml version="1.0" encoding="UTF-8"?>
<svg width="24px" height="24px" viewBox="0 0 24 24" version="1.1" xmlns="http://www.w3.org/2000/svg" xmlns:xlink="http://www.w3.org/1999/xlink">
    <!-- Generator: Sketch 45.2 (43514) - http://www.bohemiancoding.com/sketch -->
    <title>github</title>
    <desc>Created with Sketch.</desc>
    <defs></defs>
    <g id="Icons" stroke="none" stroke-width="1" fill="none" fill-rule="evenodd">
        <g id="github" fill="#959DA1">
            <g transform="translate(2.800000, 3.800000)" id="Shape">
                <path d="M9.19584048,0.407288037 C4.78725887,0.407288037 1.21202807,3.98469294 1.21202807,8.39829644 C1.21202807,11.9287111 3.49970469,14.9234492 6.67251607,15.9801397 C7.07196619,16.0537246 7.21751189,15.807079 7.21751189,15.5950591 C7.21751189,15.4057244 7.21066669,14.9028162 7.20678248,14.2362522 C4.9859609,14.7189853 4.51738509,13.164882 4.51738509,13.164882 C4.15419872,12.2415976 3.63064508,11.9958679 3.63064508,11.9958679 C2.90565301,11.5005243 3.68562291,11.5101581 3.68562291,11.5101581 C4.48704332,11.5665532 4.90862597,12.3337378 4.90862597,12.3337378 C5.62084256,13.5547881 6.77768092,13.202018 7.23256633,12.9973336 C7.30511045,12.4813571 7.51157259,12.129045 7.73946859,11.929398 C5.96645433,11.7276903 4.10241476,11.0420877 4.10241476,7.97996392 C4.10241476,7.10779122 4.41358429,6.39400802 4.92436244,5.8358582 C4.84201214,5.63368408 4.56802957,4.82088306 5.00283685,3.72109486 C5.00283685,3.72109486 5.67285109,3.50631878 7.19834866,4.54032407 C7.83506015,4.36267543 8.51829901,4.27442778 9.19721284,4.27098472 C9.8756609,4.27442778 10.5584506,4.36267543 11.196077,4.54032407 C12.7204268,3.50631878 13.3895344,3.72109486 13.3895344,3.72109486 C13.8252566,4.82088306 13.5512741,5.63369256 13.4693812,5.83586668 C13.981066,6.39400802 14.2899565,7.10779122 14.2899565,7.9799724 C14.2899565,11.0496608 12.422956,11.7251632 10.6446851,11.9229783 C10.9309857,12.1696155 11.1862625,12.6573945 11.1862625,13.4030387 C11.1862625,14.4709659 11.176448,15.3328263 11.176448,15.5948301 C11.176448,15.8086903 11.3206297,16.0573882 11.7253281,15.9794528 C14.8956359,14.9204641 17.1812581,11.9275663 17.1812581,8.39805898 C17.1812581,3.98469294 13.6060273,0.407059064 9.19607336,0.407059064"></path>
            </g>
        </g>
    </g>
</svg>