<?xml version="1.0" encoding="UTF-8"?>
<svg width="24px" height="24px" viewBox="0 0 24 24" version="1.1" xmlns="http://www.w3.org/2000/svg" xmlns:xlink="http://www.w3.org/1999/xlink">
    <!-- Generator: Sketch 45.2 (43514) - http://www.bohemiancoding.com/sketch -->
    <title>googleshare</title>
    <desc>Created with Sketch.</desc>
    <defs></defs>
    <g id="Icons" stroke="none" stroke-width="1" fill="none" fill-rule="evenodd">
        <g id="googleshare" fill="#959DA1">
            <g id="google-share" transform="translate(4.000000, 4.000000)">
                <path d="M2.4,10.4 C1.07451667,10.4 0,9.32548333 0,8 C0,6.67451667 1.07451667,5.6 2.4,5.6 C3.04713333,5.6 3.63444167,5.856125 4.06608333,6.272525 L11.2181333,2.69650833 C11.2060325,2.59813591 11.1999767,2.49911389 11.2,2.4 C11.2,1.07451667 12.2745167,0 13.6,0 C14.9254833,0 16,1.07451667 16,2.4 C16,3.72548333 14.9254833,4.8 13.6,4.8 C12.9528667,4.8 12.3655583,4.543875 11.9339167,4.127475 L4.78186667,7.70349167 C4.79396745,7.80186409 4.80002327,7.90088611 4.8,8 C4.8,8.10039167 4.79383333,8.19935 4.78186667,8.2965 L11.9339083,11.872525 C12.3655583,11.456125 12.9528667,11.2 13.6,11.2 C14.9254833,11.2 16,12.2745167 16,13.6 C16,14.9254833 14.9254833,16 13.6,16 C12.2745167,16 11.2,14.9254833 11.2,13.6 C11.2,13.4996083 11.2061667,13.40065 11.2181333,13.3035 L4.06609167,9.727475 C3.63444167,10.143875 3.04713333,10.4 2.4,10.4 Z" id="Shape"></path>
            </g>
        </g>
    </g>
</svg>