<?xml version="1.0" encoding="UTF-8"?>
<svg width="24px" height="24px" viewBox="0 0 24 24" version="1.1" xmlns="http://www.w3.org/2000/svg" xmlns:xlink="http://www.w3.org/1999/xlink">
    <!-- Generator: Sketch 45.2 (43514) - http://www.bohemiancoding.com/sketch -->
    <title>google</title>
    <desc>Created with Sketch.</desc>
    <defs></defs>
    <g id="Icons" stroke="none" stroke-width="1" fill="none" fill-rule="evenodd">
        <g id="google" fill="#959DA1">
            <g transform="translate(4.200000, 4.000000)" id="Shape">
                <path d="M11.1028368,4.28746793 L13.3622066,2.08146918 C11.9745604,0.791667122 10.1688442,0 8.00731854,0 C4.87621682,0 2.17209148,1.7968266 0.855603918,4.41200583 L3.44409764,6.42230811 C4.09344765,4.49206234 5.89026591,3.09551827 8.00731854,3.09551827 C9.51060462,3.09551827 10.5246537,3.74486827 11.1028368,4.28746793 Z M15.6927432,8.18355127 C15.6927432,7.52531165 15.6393722,7.04497261 15.5237322,6.54684602 L8.00731854,6.54684602 L8.00731854,9.51782638 L12.4193244,9.51782638 C12.3303699,10.2561308 11.8500309,11.368024 10.7826108,12.1152181 L13.3088356,14.0721577 C14.8210196,12.6756136 15.6927432,10.6208299 15.6927432,8.18355127 L15.6927432,8.18355127 Z M3.45299559,9.58899328 C3.28398463,9.09085834 3.18614057,8.5571483 3.18614057,8.0056507 C3.18614057,7.45415309 3.28398463,6.92044305 3.44409764,6.42230811 L0.855603918,4.41200583 C0.312995925,5.49721348 0.0016678439,6.71584864 0.0016678439,8.0056507 C0.0016678439,9.29545275 0.312995925,10.5140879 0.855603918,11.5992956 L3.45299559,9.58899328 Z M8.00731854,16.0113014 C10.1688442,16.0113014 11.9834584,15.2996908 13.3088356,14.0721577 L10.7826108,12.1152181 C10.1065753,12.5866591 9.1992682,12.9157831 8.00731854,12.9157831 C5.89026591,12.9157831 4.09344765,11.5192391 3.45299559,9.58899328 L0.864501865,11.5992956 C2.18098109,14.2144748 4.87621682,16.0113014 8.00731854,16.0113014 Z"></path>
            </g>
        </g>
    </g>
</svg>