<?xml version="1.0" encoding="UTF-8"?>
<svg width="24px" height="24px" viewBox="0 0 24 24" version="1.1" xmlns="http://www.w3.org/2000/svg" xmlns:xlink="http://www.w3.org/1999/xlink">
    <!-- Generator: Sketch 45.2 (43514) - http://www.bohemiancoding.com/sketch -->
    <title>heart</title>
    <desc>Created with Sketch.</desc>
    <defs></defs>
    <g id="Icons" stroke="none" stroke-width="1" fill="none" fill-rule="evenodd">
        <g id="heart" fill-rule="nonzero" fill="#959DA1">
            <g transform="translate(4.000000, 5.000000)" id="Path-11">
                <path d="M12.9775533,6.84631434 C13.5994772,6.15356368 13.887043,5.59069064 14.0124765,4.76911822 C14.0430437,3.8062003 13.7055878,3.15657298 13.0540235,2.66425753 C12.5099741,2.25317929 11.7617674,2.00296434 11.3840766,2.00296216 C10.5136825,2.00167634 9.84573348,2.23572485 9.29043272,2.71197439 L8.00719225,3.98927217 C7.4864156,3.37446913 7.05915652,2.93946682 6.725415,2.68426525 C5.92925939,2.07547027 5.61505193,2.03340831 4.65745372,2 C3.23518072,2 2,3.27028171 2,4.58961197 C2,5.13349098 2.1195243,5.50866156 2.43315818,5.96752484 C2.87924994,6.62018111 6.56583227,10.0863217 8.02471611,11.5149818 C9.64985702,9.90295155 12.6188524,7.24586529 12.9775533,6.84631434 Z M7.98841274,1.19383607 C8.91641093,0.397945355 10.0492837,0.000988112609 11.3870311,0.00296433783 C12.6920593,0.00296433783 16.2027555,1.19383607 16.0063214,4.95502875 C15.5579907,8.23906562 13.1826102,9.02943396 9.03207789,13.3408309 C8.13155679,14.217065 7.81137151,14.1361873 7.00859243,13.3252729 C2.31560969,8.51809949 2.84217094e-14,7.51110728 0,4.58961197 C0,2.27815784 2.0205428,0 4.65745372,0 C6.16090581,0.0506690907 7.27122548,0.448614446 7.98841274,1.19383607 Z"></path>
            </g>
        </g>
    </g>
</svg>