<?xml version="1.0" encoding="UTF-8"?>
<svg width="24px" height="24px" viewBox="0 0 24 24" version="1.1" xmlns="http://www.w3.org/2000/svg" xmlns:xlink="http://www.w3.org/1999/xlink">
    <!-- Generator: Sketch 45.2 (43514) - http://www.bohemiancoding.com/sketch -->
    <title>info</title>
    <desc>Created with Sketch.</desc>
    <defs></defs>
    <g id="Icons" stroke="none" stroke-width="1" fill="none" fill-rule="evenodd">
        <g id="info" fill="#959DA1">
            <g id="help" transform="translate(4.000000, 4.000000)">
                <path d="M8,14 C11.3137085,14 14,11.3137085 14,8 C14,4.6862915 11.3137085,2 8,2 C4.6862915,2 2,4.6862915 2,8 C2,11.3137085 4.6862915,14 8,14 Z M8,16 C3.581722,16 0,12.418278 0,8 C0,3.581722 3.581722,0 8,0 C12.418278,0 16,3.581722 16,8 C16,12.418278 12.418278,16 8,16 Z" id="Oval" fill-rule="nonzero"></path>
                <path d="M6.60166667,11.0121417 C6.60166667,11.4915917 6.94621667,11.8416667 7.42698333,11.8416667 C7.91576667,11.8416667 8.26833333,11.4839833 8.26833333,11.004525 C8.26833333,10.5326917 7.91576667,10.175 7.435,10.175 C6.96225,10.175 6.60166667,10.5403 6.60166667,11.0121417 L6.60166667,11.0121417 Z M5.68071667,6.65630833 L7.17204167,6.65630833 C7.19291198,6.48878726 7.23526867,6.32465128 7.29806667,6.16795 C7.36108333,6.01041667 7.44335,5.87213333 7.544875,5.75311667 C7.64639167,5.63408333 7.76891667,5.53956667 7.91245833,5.46955 C8.05598333,5.39953333 8.22226667,5.364525 8.41130833,5.364525 C8.65636667,5.364525 8.86990833,5.43104167 9.05195,5.56406667 C9.23399167,5.6971 9.32500833,5.90364167 9.32500833,6.1837 C9.32500833,6.42875833 9.25149167,6.6353 9.10445833,6.80334167 C8.957425,6.971375 8.78239167,7.11490833 8.57935,7.233925 C8.32729167,7.36695833 8.10499167,7.49649167 7.91245,7.62251667 C7.71990833,7.74854167 7.55186667,7.892075 7.40834167,8.05310833 C7.26480833,8.21414167 7.14753333,8.41019167 7.05650833,8.64124167 C6.96549167,8.87229167 6.89548333,9.15935 6.84646667,9.502425 L8.232775,9.502425 C8.274775,9.13134167 8.40780833,8.84078333 8.63185833,8.63073333 C8.85590833,8.42069167 9.12196667,8.23515 9.430025,8.07411667 C9.626075,7.96209167 9.81160833,7.84306667 9.98665,7.71703333 C10.1616917,7.59100833 10.315725,7.447475 10.44875,7.28645 C10.5817833,7.12540833 10.6885583,6.94686667 10.769075,6.750825 C10.8495917,6.55478333 10.88985,6.33074167 10.88985,6.07868333 C10.88985,5.7426 10.8268333,5.45204167 10.7008083,5.20699167 C10.5747833,4.96193333 10.4067417,4.76064167 10.1967,4.60310833 C9.98665,4.445575 9.74335,4.3283 9.46678333,4.25128333 C9.190225,4.17426667 8.90141667,4.13575833 8.60035,4.13575833 C8.20126667,4.13575833 7.83018333,4.18826667 7.48710833,4.29329167 C7.14403333,4.39831667 6.84121667,4.55585 6.57865833,4.76589167 C6.3161,4.97594167 6.10605833,5.2385 5.948525,5.55356667 C5.79099167,5.86863333 5.701725,6.23621667 5.68071667,6.65630833 L5.68071667,6.65630833 Z" id="Shape"></path>
            </g>
        </g>
    </g>
</svg>