<?xml version="1.0" encoding="UTF-8"?>
<svg width="24px" height="24px" viewBox="0 0 24 24" version="1.1" xmlns="http://www.w3.org/2000/svg" xmlns:xlink="http://www.w3.org/1999/xlink">
    <!-- Generator: Sketch 45.2 (43514) - http://www.bohemiancoding.com/sketch -->
    <title>invite</title>
    <desc>Created with Sketch.</desc>
    <defs></defs>
    <g id="Icons" stroke="none" stroke-width="1" fill="none" fill-rule="evenodd">
        <g id="invite" fill-rule="nonzero" fill="#959DA1">
            <g id="trellist-+" transform="translate(3.800000, 3.300000)">
                <path d="M14.0520099,11.736562 L14.0520099,10.7294895 C14.0520099,10.1754789 13.6028955,9.72636457 13.0488849,9.72636457 C12.4948743,9.72636457 12.04576,10.1754789 12.04576,10.7294895 L12.04576,11.736562 L11.0343745,11.736562 C10.4803639,11.736562 10.0312495,12.1856763 10.0312495,12.7396869 C10.0312495,13.2936976 10.4803639,13.7428119 11.0343745,13.7428119 L12.04576,13.7428119 L12.04576,14.7459542 C12.04576,15.2999648 12.4948743,15.7490791 13.0488849,15.7490791 C13.6028955,15.7490791 14.0520099,15.2999648 14.0520099,14.7459542 L14.0520099,13.7428119 L15.0390203,13.7428119 C15.593031,13.7428119 16.0421453,13.2936976 16.0421453,12.7396869 C16.0421453,12.1856763 15.593031,11.736562 15.0390203,11.736562 L14.0520099,11.736562 Z" id="Combined-Shape"></path>
                <path d="M8.36460662,9.72746041 C5.19795803,10.1409887 3.36238111,11.8023833 2.71591636,14.7555032 C3.46415478,14.7555032 4.7747694,14.7442592 8.02499962,14.7442592 C8.57901023,14.7442592 9.0061704,15.1475112 9.0061704,15.7015218 C9.0061704,16.2555325 8.55705606,16.7046468 8.00304545,16.7046468 L0.416301887,16.7046468 L0.540281939,15.5905736 C0.935144161,12.0423785 2.57769565,9.62792144 5.3764967,8.44949364 C4.53504841,7.62955931 4.01249981,6.48392832 4.01249981,5.21624956 C4.01249981,2.72320193 6.03351423,0.702187514 8.52656186,0.702187514 C11.0196095,0.702187514 13.0406239,2.72320193 13.0406239,5.21624956 C13.0406239,7.70929719 11.0196095,9.73031161 8.52656186,9.73031161 C8.47234825,9.73031161 8.41835786,9.7293559 8.36460662,9.72746041 Z M8.52656186,7.7240617 C9.91158826,7.7240617 11.034374,6.60127596 11.034374,5.21624956 C11.034374,3.83122316 9.91158826,2.70843742 8.52656186,2.70843742 C7.14153545,2.70843742 6.01874971,3.83122316 6.01874971,5.21624956 C6.01874971,6.60127596 7.14153545,7.7240617 8.52656186,7.7240617 Z" id="Combined-Shape"></path>
            </g>
        </g>
    </g>
</svg>