<?xml version="1.0" encoding="UTF-8"?>
<svg width="24px" height="24px" viewBox="0 0 24 24" version="1.1" xmlns="http://www.w3.org/2000/svg" xmlns:xlink="http://www.w3.org/1999/xlink">
    <!-- Generator: Sketch 45.2 (43514) - http://www.bohemiancoding.com/sketch -->
    <title>kiln</title>
    <desc>Created with Sketch.</desc>
    <defs></defs>
    <g id="Icons" stroke="none" stroke-width="1" fill="none" fill-rule="evenodd">
        <g id="kiln" fill="#959DA1">
            <g transform="translate(6.200000, 4.000000)" id="Shape">
                <path d="M6.79374829,0.211822723 C7.03707685,0.17581122 7.05498076,0 7.05498076,0 C7.05498076,0 7.30682528,0.0515457152 7.4310688,0.240415511 C7.55530417,0.429285308 7.56694945,0.719664422 7.71021333,1.15502406 C7.85348535,1.59060503 8.01444125,1.78600001 8.08002644,2.00975826 C8.14561978,2.2335083 8.10084779,2.48788411 8.10084779,2.48788411 C8.10084779,2.48788411 8.83756474,2.27357755 9.17782866,2.37870196 C9.51809259,2.48382636 9.50667548,2.79808472 9.50667548,2.79808472 C9.50667548,2.79808472 8.51140717,3.08261903 8.23337094,3.31154988 C8.23337094,3.31154988 8.25441232,3.42860981 8.32246673,3.46349826 C8.390513,3.49838671 8.91120954,3.42567511 9.00455924,3.62039791 C9.27117836,3.53890682 9.30632609,3.36130035 9.59845237,3.25414298 C9.89058681,3.14700199 10.5713428,3.28138318 10.8511556,4.07646436 C11.1309847,4.87153734 10.9984615,5.50341502 10.3853117,6.13325972 C9.77194183,6.76288309 8.53534968,6.67712112 8.53534968,6.67712112 C8.53534968,6.67712112 9.02850989,6.21565253 9.07283368,5.95339895 C9.11738565,5.69115356 9.02336771,5.50589066 8.72182904,5.31793078 C8.42006219,5.12996271 7.46598835,4.97891605 7.29138245,4.84677278 C7.54142599,5.58872613 9.65240858,8.19862144 9.57987208,8.41764974 C9.34527137,8.41764974 9.00500745,8.04351704 9.00500745,8.04351704 C9.00500745,8.04351704 9.37907447,8.92166322 9.40817546,9.22825694 C9.43750462,9.53485066 9.34527137,9.89029312 9.34527137,9.89029312 C9.34527137,9.89029312 9.17827687,9.91550855 9.1299192,9.45966343 C8.96784685,9.7417303 8.83510366,10.119683 8.43215568,10.5221708 C8.02921585,10.9248881 7.68962016,10.8832449 7.47449617,11.1216357 C7.25936403,11.3600182 7.29675281,11.9311198 7.35114907,12.4880316 C7.40532531,13.0449434 7.66544133,13.3254281 8.08047465,13.462744 C8.49551613,13.5998304 9.32938033,13.2515935 9.50734372,13.2430353 C9.68531527,13.2344853 9.82813093,13.3783264 9.82813093,13.3783264 C9.82813093,13.3783264 10.3127833,13.061822 10.7855704,13.1250819 C11.2583575,13.1883418 11.7038364,13.8548784 11.7038364,13.8548784 C11.7038364,13.8548784 11.6657794,14.2600795 11.5086292,14.332332 C11.3514872,14.4043632 10.7855704,14.3708274 10.7855704,14.3708274 C10.7855704,14.3708274 10.9069046,14.5398839 10.6420784,14.5722967 C10.3774802,14.6047095 9.43347074,14.6238424 8.66854922,14.5722967 C7.90340767,14.5207428 7.23406875,14.4572697 6.97887488,14.3708274 C6.72345283,14.2846063 6.55063162,14.2116734 6.52690099,13.9870216 C6.50295034,13.7623617 6.92581509,13.4778274 6.83381002,12.7635651 C6.74180495,12.0492946 6.31043237,11.4608717 6.19313202,11.3658712 C6.07583167,11.2708789 5.74183452,11.0259629 5.29635558,11.3413362 C4.8508848,11.6567094 4.69888492,12.1051276 4.58314923,12.4882529 C4.5195769,12.6982804 4.5294212,13.222558 4.74432516,13.503715 C4.9594573,13.7848719 5.40738916,13.9163348 5.42932695,14.0448712 C5.80227753,14.0385592 6.20858301,14.1484217 6.49691174,14.4293491 C6.67778442,14.6056112 7.02901724,15.0637024 6.8602299,15.1956162 C6.41408273,15.5440826 5.67154721,15.4027172 5.67154721,15.4027172 C5.67154721,15.4027172 5.23010215,15.7804404 4.260341,15.7354198 C3.29059615,15.6903993 3.15941762,15.4880283 2.92234769,15.3556637 C1.5655459,15.4675428 1.48786722,15.0985909 1.48786722,15.0985909 C1.48786722,15.0985909 1.58614722,14.5945774 1.79298341,14.3705978 C1.99960773,14.1466183 2.43120849,13.9701348 2.88541528,14.0658076 C2.88541528,14.0658076 3.94291944,13.6225702 4.11013397,13.0246874 C4.27758482,12.4268046 3.82024058,11.7361757 3.84441941,11.397161 C3.50527193,11.2711002 3.00361205,10.8179602 2.11579164,9.45966343 C1.22797123,8.10115348 1.23758735,7.79905198 1.14849971,7.45756981 C1.05940393,7.11630898 1.02493258,6.04366953 0.968075243,5.62497536 C0.910989723,5.20627299 0.783836923,4.77766807 0.783836923,4.77766807 C0.783836923,4.77766807 0.988220198,4.96473442 1.07597136,5.34223629 C1.14849971,4.98634297 0.992245929,4.2788354 0.988220198,4.02491045 C0.984414496,3.7709937 1.03925897,3.50514143 1.03925897,3.50514143 C1.03925897,3.50514143 1.31706702,4.02491045 1.48741901,4.37247514 C1.65777915,4.72004803 1.88230738,4.77767627 1.88230738,4.77767627 L2.11578349,4.48564127 L3.11240458,5.1218636 C3.11240458,5.1218636 3.92836487,5.08764735 4.30198369,5.20875682 C4.67560251,5.3298663 5.67758581,5.87687553 5.93591714,5.82645287 C6.19424847,5.77603021 6.23298187,5.39829881 6.08455952,4.89855622 C5.93591714,4.39882182 5.29568735,3.70279072 5.21845687,3.46394912 C4.71477597,3.28904782 3.19635004,3.14767419 2.99555243,3.0632566 C3.06785261,2.77512359 3.28164012,2.46830854 4.12894244,2.37916102 C3.98074827,2.09440537 4.14260059,1.77407269 4.25967277,1.598491 C4.37697312,1.4229093 5.16585344,0.545443511 5.27800347,0.094779192 C5.74273094,0.211380059 6.55063162,0.24785062 6.79374014,0.211839118 L6.79374829,0.211822723 Z"></path>
            </g>
        </g>
    </g>
</svg>