<?xml version="1.0" encoding="UTF-8"?>
<svg width="24px" height="24px" viewBox="0 0 24 24" version="1.1" xmlns="http://www.w3.org/2000/svg" xmlns:xlink="http://www.w3.org/1999/xlink">
    <!-- Generator: Sketch 45.2 (43514) - http://www.bohemiancoding.com/sketch -->
    <title>label</title>
    <desc>Created with Sketch.</desc>
    <defs></defs>
    <g id="Icons" stroke="none" stroke-width="1" fill="none" fill-rule="evenodd">
        <g id="label" fill="#959DA1">
            <g transform="translate(12.000000, 12.000000) scale(-1, 1) translate(-12.000000, -12.000000) translate(4.000000, 4.000000)" id="Shape">
                <path d="M1.49608493,7.72839719 C1.48338873,7.74109339 1.37630948,7.8562974 1.33798134,7.90047458 C1.23258892,8.02200674 1.12228572,8.16092629 1.01104427,8.31637486 C0.692900719,8.7609913 0.424533847,9.25768012 0.241836364,9.80198966 C-0.0010782252,10.5257328 -0.071246675,11.2764154 0.0783029527,12.0336358 C0.252356641,12.9148837 0.715907586,13.7519743 1.48196141,14.5180381 C2.24802521,15.2841019 3.08510587,15.7476329 3.9663637,15.9216966 C4.72358408,16.0712462 5.47426672,16.0010678 6.19799988,15.7581532 C6.7423194,15.5754657 7.23900822,15.3070988 7.68361468,14.9889553 C7.83907323,14.8777238 7.97799279,14.7674106 8.09951496,14.6620082 C8.14370212,14.6236801 8.25890614,14.5166108 8.27159236,14.5039246 L15.7104961,7.06502087 C16.0847345,6.69079247 16.0847943,6.0840899 15.710556,5.70986149 L10.290148,0.289443573 C9.91593957,-0.084754888 9.30922702,-0.084754888 8.93496867,0.289503461 L1.49608493,7.72839719 Z M13.6778967,6.38741124 L6.91649287,13.1488151 C6.8927135,13.1711018 6.86850093,13.1929217 6.84386902,13.2142624 C6.76591517,13.2818657 6.67350841,13.3552481 6.56842542,13.4304471 C6.26865741,13.644945 5.93627057,13.8245283 5.5882131,13.9413493 C5.16460726,14.0835327 4.74743936,14.1225296 4.33768755,14.0416013 C3.83980098,13.9432657 3.34141534,13.6672831 2.8370609,13.1629287 C2.33270645,12.6585742 2.05672385,12.1601985 1.95838821,11.662302 C1.87746991,11.2525602 1.9164668,10.8353923 2.05864026,10.4117864 C2.17547123,10.063719 2.35505455,9.73134211 2.56955241,9.43157411 C2.64475143,9.32649112 2.71813386,9.23407438 2.78573712,9.15613051 C2.8045344,9.13437509 2.82373507,9.1129715 2.84332914,9.09193087 C2.85237219,9.08240872 9.61258829,2.32209281 9.61258829,2.32209281 L13.6778967,6.38741124 L13.6778967,6.38741124 Z M3.93934375,12.0606644 C4.525125,12.6464452 5.47486458,12.6464452 6.06065625,12.0606644 C6.64644792,11.4748733 6.64644792,10.5251241 6.06065625,9.93934337 C5.474875,9.35355221 4.52513542,9.35355221 3.93934375,9.93934337 C3.35355208,10.5251241 3.35355208,11.4748733 3.93934375,12.0606644 Z"></path>
            </g>
        </g>
    </g>
</svg>