<?xml version="1.0" encoding="UTF-8"?>
<svg width="24px" height="24px" viewBox="0 0 24 24" version="1.1" xmlns="http://www.w3.org/2000/svg" xmlns:xlink="http://www.w3.org/1999/xlink">
    <!-- Generator: Sketch 45.2 (43514) - http://www.bohemiancoding.com/sketch -->
    <title>leaveboard</title>
    <desc>Created with Sketch.</desc>
    <defs></defs>
    <g id="Icons" stroke="none" stroke-width="1" fill="none" fill-rule="evenodd">
        <g id="leaveboard" fill-rule="nonzero" fill="#959DA1">
            <g id="icon" transform="translate(3.800000, 3.800000)">
                <path d="M2.24153835,5.25841849 L2.24153835,2.29340297 C2.24153835,2.26522901 2.26498491,2.24180297 2.29313836,2.24180297 L14.1584927,2.24180297 C14.1873179,2.24180297 14.2100927,2.26457784 14.2100927,2.29340297 L14.2100927,14.1587573 C14.2100927,14.1875825 14.1873179,14.2103573 14.1584927,14.2103573 L2.29313836,14.2103573 C2.26498491,14.2103573 2.1982496,14.1869313 2.1982496,14.1587573 L2.1982496,11.2850341 C2.1982496,10.7369977 1.79726705,10.2927264 1.24923062,10.2927264 C0.701194187,10.2927264 0.25692288,10.7369977 0.25692288,11.2850341 L0.25692288,14.1587573 C0.25692288,15.2833932 1.16930072,16.1949728 2.29313836,16.1949728 L14.1584927,16.1949728 C15.2833907,16.1949728 16.1947082,15.2836553 16.1947082,14.1587573 L16.1947082,2.29340297 C16.1947082,1.16850498 15.2833907,0.257187496 14.1584927,0.257187496 L2.29313836,0.257187496 C1.16930072,0.257187496 0.25692288,1.16876711 0.25692288,2.29340297 L0.25692288,5.25841849 C0.25692288,5.80645492 0.701194187,6.25072622 1.24923062,6.25072622 C1.79726705,6.25072622 2.24153835,5.80645492 2.24153835,5.25841849 Z" id="Page-1"></path>
                <g id="arrow" transform="translate(6.999914, 8.129231) scale(-1, 1) rotate(-360.000000) translate(-6.999914, -8.129231) translate(0.384529, 2.175384)">
                    <path d="M4.72546901,7.0128038 L6.88551377,9.17284856 C7.27303405,9.56036884 7.27303405,10.1886633 6.88551377,10.5761836 C6.4979935,10.9637039 5.86969899,10.9637039 5.48217871,10.5761836 L0.87599714,5.97000205 L5.48614364,1.37815616 C5.87443383,0.991407338 6.5027271,0.992656867 6.88947592,1.38094706 C7.27622474,1.76923726 7.27497522,2.39753052 6.88668502,2.78427935 L4.63383303,5.02818833 L11.9221413,5.02818833 C12.4701777,5.02818833 12.914449,5.47245964 12.914449,6.02049607 C12.914449,6.5685325 12.4701777,7.0128038 11.9221413,7.0128038 L4.72546901,7.0128038 Z" id="Combined-Shape"></path>
                </g>
            </g>
        </g>
    </g>
</svg>