<?xml version="1.0" encoding="UTF-8"?>
<svg width="24px" height="24px" viewBox="0 0 24 24" version="1.1" xmlns="http://www.w3.org/2000/svg" xmlns:xlink="http://www.w3.org/1999/xlink">
    <!-- Generator: Sketch 45.2 (43514) - http://www.bohemiancoding.com/sketch -->
    <title>link</title>
    <desc>Created with Sketch.</desc>
    <defs></defs>
    <g id="Icons" stroke="none" stroke-width="1" fill="none" fill-rule="evenodd">
        <g id="link" fill-rule="nonzero" fill="#959DA1">
            <g id="icon" transform="translate(4.000000, -0.200000)">
                <g id="base" transform="translate(0.000000, 5.593837)">
                    <path d="M2.00735607,12.6068059 L2.00735607,2.61181314 C2.29000081,2.61181314 2.40451934,2.61181314 3.54210602,2.61181314 L5.9758049,2.61181314 C6.52981553,2.61181314 6.97892988,2.23383691 6.97892988,1.68758554 C6.97892988,1.14133416 6.52981553,0.698509925 5.9758049,0.698509925 L2.00735607,0.698509925 C0.93536427,0.698509925 0.0668752539,1.55483523 0.0668752539,2.61181314 L0.0668752539,12.6161541 C0.0668752539,13.673132 0.93536427,14.5294573 2.00735607,14.5294573 L12.0685985,14.5294573 C13.1396163,14.5294573 14.0090794,13.6729216 14.0090794,12.6161541 L14.0090794,8.58994056 C14.0090794,8.04368918 13.559965,7.60086495 13.0059544,7.60086495 C12.4519437,7.60086495 12.0028294,8.04368918 12.0028294,8.58994056 L12.0028294,12.6068059 L2.00735607,12.6068059 Z" id="Page-1"></path>
                </g>
                <g id="arrow" transform="translate(11.729127, 8.621196) scale(-1, 1) rotate(-315.000000) translate(-11.729127, -8.621196) translate(4.729127, 3.621196)">
                    <path d="M4.76757302,5.98996185 L6.95513863,8.1872556 C7.34688331,8.57351365 7.35231812,9.15547705 6.96057345,9.5417351 C6.56882877,9.92799315 5.93368516,9.92799315 5.54194049,9.5417351 L0.885546473,4.95055668 L5.49266339,0.320382013 C5.88518637,-0.0651071007 6.52032873,-0.0638616423 6.91129354,0.323163822 C7.30225835,0.710189287 7.26736369,1.30993519 6.8748407,1.69542431 L4.60159677,4.01181062 L12.0521057,4.01181062 C12.6061164,4.01181062 13.0552307,4.45463486 13.0552307,5.00088623 C13.0552307,5.54713761 12.6061164,5.98996185 12.0521057,5.98996185 L4.76757302,5.98996185 Z" id="Combined-Shape"></path>
                </g>
            </g>
        </g>
    </g>
</svg>