<?xml version="1.0" encoding="UTF-8"?>
<svg width="24px" height="24px" viewBox="0 0 24 24" version="1.1" xmlns="http://www.w3.org/2000/svg" xmlns:xlink="http://www.w3.org/1999/xlink">
    <!-- Generator: Sketch 45.2 (43514) - http://www.bohemiancoding.com/sketch -->
    <title>lock</title>
    <desc>Created with Sketch.</desc>
    <defs></defs>
    <g id="Icons" stroke="none" stroke-width="1" fill="none" fill-rule="evenodd">
        <g id="lock" fill-rule="nonzero" fill="#959DA1">
            <g transform="translate(4.000000, 4.000000)" id="Combined-Shape">
                <path d="M13,6 L11,6 C11,3.747951 9.6016392,2 8,2 C6.3983608,2 5,3.747951 5,6 L3,6 C3,2.72920151 5.1833612,0 8,0 C10.8166388,0 13,2.72920151 13,6 Z M2,6 L14,6 C15.1045695,6 16,6.8954305 16,8 L16,14 C16,15.1045695 15.1045695,16 14,16 L2,16 C0.8954305,16 1.3527075e-16,15.1045695 0,14 L0,8 C-1.3527075e-16,6.8954305 0.8954305,6 2,6 Z M2,8 L2,14 L14,14 L14,8 L2,8 Z"></path>
            </g>
        </g>
    </g>
</svg>