<?xml version="1.0" encoding="UTF-8"?>
<svg width="24px" height="24px" viewBox="0 0 24 24" version="1.1" xmlns="http://www.w3.org/2000/svg" xmlns:xlink="http://www.w3.org/1999/xlink">
    <!-- Generator: Sketch 45.2 (43514) - http://www.bohemiancoding.com/sketch -->
    <title>logout</title>
    <desc>Created with Sketch.</desc>
    <defs></defs>
    <g id="Icons" stroke="none" stroke-width="1" fill="none" fill-rule="evenodd">
        <g id="logout" fill-rule="nonzero" fill="#959DA1">
            <g id="icon" transform="translate(4.000000, 4.000000)">
                <path d="M10.8129187,4.22886882 L10.8129187,10.7610187 C10.8129187,10.7900114 10.7900114,10.8129187 10.7610187,10.8129187 L-1.17331924,10.8129187 C-1.20231196,10.8129187 -1.22521923,10.7900114 -1.22521923,10.7610187 L-1.22521923,4.21944987 C-1.22521923,3.66822723 -1.67207347,3.22137299 -2.22329611,3.22137299 C-2.77451875,3.22137299 -3.22137299,3.66822723 -3.22137299,4.21944987 L-3.22137299,10.7610187 C-3.22137299,11.8924567 -2.30475724,12.8090725 -1.17331924,12.8090725 L10.7610187,12.8090725 C11.8924567,12.8090725 12.8090725,11.8924567 12.8090725,10.7610187 L12.8090725,4.22886882 C12.8090725,3.67764618 12.3622182,3.23079194 11.8109956,3.23079194 C11.2597729,3.23079194 10.8129187,3.67764618 10.8129187,4.22886882 Z" id="Page-1" transform="translate(4.793850, 8.015223) rotate(-270.000000) translate(-4.793850, -8.015223) "></path>
                <g id="arrow" transform="translate(10.267692, 7.863076) scale(-1, 1) rotate(-360.000000) translate(-10.267692, -7.863076) translate(3.767692, 2.863076)">
                    <path d="M4.83244438,6.13307742 L6.92554522,8.22617826 C7.31531848,8.61595153 7.31531848,9.24789885 6.92554522,9.63767212 C6.53577195,10.0274454 5.90382462,10.0274454 5.51405136,9.63767212 L0.881090069,5.00471083 L5.51803933,0.386168576 C5.90858699,-0.00282875358 6.54053307,-0.00157196061 6.9295304,0.388975701 C7.31852773,0.779523363 7.31727094,1.41146944 6.92672327,1.80046677 L4.58095452,4.13692367 L11.7681607,4.13692367 C12.3193834,4.13692367 12.7662376,4.58377791 12.7662376,5.13500055 C12.7662376,5.68622319 12.3193834,6.13307742 11.7681607,6.13307742 L4.83244438,6.13307742 Z" id="Combined-Shape"></path>
                </g>
            </g>
        </g>
    </g>
</svg>