<?xml version="1.0" encoding="UTF-8"?>
<svg width="24px" height="24px" viewBox="0 0 24 24" version="1.1" xmlns="http://www.w3.org/2000/svg" xmlns:xlink="http://www.w3.org/1999/xlink">
    <!-- Generator: Sketch 45.2 (43514) - http://www.bohemiancoding.com/sketch -->
    <title>menu</title>
    <desc>Created with Sketch.</desc>
    <defs></defs>
    <g id="Icons" stroke="none" stroke-width="1" fill="none" fill-rule="evenodd">
        <g id="menu" fill-rule="nonzero" fill="#959DA1">
            <g transform="translate(3.500000, 4.700000)" id="Line">
                <path d="M1.52369502,2.29852963 L15.559615,2.29852963 C16.0980927,2.29852963 16.5346151,1.86200724 16.5346151,1.32352958 C16.5346151,0.785051919 16.0980927,0.348529526 15.559615,0.348529526 L1.52369502,0.348529526 C0.985217361,0.348529526 0.548694968,0.785051919 0.548694968,1.32352958 C0.548694968,1.86200724 0.985217361,2.29852963 1.52369502,2.29852963 Z"></path>
                <path d="M1.52369502,8.23970616 L15.559615,8.23970616 C16.0980927,8.23970616 16.5346151,7.80318377 16.5346151,7.26470611 C16.5346151,6.72622845 16.0980927,6.28970605 15.559615,6.28970605 L1.52369502,6.28970605 C0.985217361,6.28970605 0.548694968,6.72622845 0.548694968,7.26470611 C0.548694968,7.80318377 0.985217361,8.23970616 1.52369502,8.23970616 Z"></path>
                <path d="M1.52369502,14.2808821 L15.559615,14.2808821 C16.0980927,14.2808821 16.5346151,13.8443597 16.5346151,13.3058821 C16.5346151,12.7674044 16.0980927,12.330882 15.559615,12.330882 L1.52369502,12.330882 C0.985217361,12.330882 0.548694968,12.7674044 0.548694968,13.3058821 C0.548694968,13.8443597 0.985217361,14.2808821 1.52369502,14.2808821 Z"></path>
            </g>
        </g>
    </g>
</svg>