<svg xmlns="http://www.w3.org/2000/svg" xmlns:xlink="http://www.w3.org/1999/xlink" width="24" height="24" version="1.1" viewBox="0 0 24 24"><title>microphone</title><desc>Created with Sketch.</desc><g id="Icons" fill="none" fill-rule="evenodd" stroke="none" stroke-width="1"><g id="microphone" fill="#959DA1" fill-rule="nonzero"><g transform="translate(6.500000, 3.000000)"><path id="Combined-Shape" d="M6.5,13.8999819 L6.5,15 L8.5,15 C9.05228475,15 9.5,15.4477153 9.5,16 C9.5,16.5522847 9.05228475,17 8.5,17 L2.5,17 C1.94771525,17 1.5,16.5522847 1.5,16 C1.5,15.4477153 1.94771525,15 2.5,15 L4.5,15 L4.5,13.8999819 C2.21775968,13.4367116 0.5,11.4189579 0.5,9 C0.5,8.44771525 0.94771525,8 1.5,8 C2.05228475,8 2.5,8.44771525 2.5,9 C2.5,10.6568542 3.84314575,12 5.5,12 C7.15685425,12 8.5,10.6568542 8.5,9 C8.5,8.44771525 8.94771525,8 9.5,8 C10.0522847,8 10.5,8.44771525 10.5,9 C10.5,11.4189579 8.78224032,13.4367116 6.5,13.8999819 Z"/><path id="Line" d="M3.48333295,2.99074787 L3.48333295,9 C3.48333295,10.1045695 4.37876345,11 5.48333295,11 C6.58790245,11 7.48333295,10.1045695 7.48333295,9 L7.48333295,2.99074787 C7.48333295,1.88617837 6.58790245,0.990747874 5.48333295,0.990747874 C4.37876345,0.990747874 3.48333295,1.88617837 3.48333295,2.99074787 Z"/></g></g></g></svg>