<?xml version="1.0" encoding="UTF-8"?>
<svg width="24px" height="24px" viewBox="0 0 24 24" version="1.1" xmlns="http://www.w3.org/2000/svg" xmlns:xlink="http://www.w3.org/1999/xlink">
    <!-- Generator: Sketch 45.2 (43514) - http://www.bohemiancoding.com/sketch -->
    <title>more</title>
    <desc>Created with Sketch.</desc>
    <defs></defs>
    <g id="Icons" stroke="none" stroke-width="1" fill="none" fill-rule="evenodd">
        <g id="more" fill="#959DA1">
            <g transform="translate(4.000000, 10.000000)" id="Combined-Shape">
                <path d="M16.0006256,2 C16.0006256,2.82881002 15.3286256,3.5 14.5011474,3.5 C13.6726256,3.5 13.0006256,2.82881002 13.0006256,2 C13.0006256,1.17118998 13.6726256,0.5 14.5011474,0.5 C15.3286256,0.5 16.0006256,1.17118998 16.0006256,2 Z M8,3.5 C7.17118998,3.5 6.5,2.828 6.5,2.00052174 C6.5,1.172 7.17118998,0.5 8,0.5 C8.82881002,0.5 9.5,1.172 9.5,2.00052174 C9.5,2.828 8.82881002,3.5 8,3.5 Z M1.50062564,3.5 C0.67181562,3.5 0.000625641016,2.828 0.000625641016,2.00052174 C0.000625641016,1.172 0.67181562,0.5 1.50062564,0.5 C2.32943566,0.5 3.00062564,1.172 3.00062564,2.00052174 C3.00062564,2.828 2.32943566,3.5 1.50062564,3.5 Z"></path>
            </g>
        </g>
    </g>
</svg>