<?xml version="1.0" encoding="UTF-8"?>
<svg width="24px" height="24px" viewBox="0 0 24 24" version="1.1" xmlns="http://www.w3.org/2000/svg" xmlns:xlink="http://www.w3.org/1999/xlink">
    <!-- Generator: Sketch 45.2 (43514) - http://www.bohemiancoding.com/sketch -->
    <title>mute</title>
    <desc>Created with Sketch.</desc>
    <defs></defs>
    <g id="Icons" stroke="none" stroke-width="1" fill="none" fill-rule="evenodd">
        <g id="mute" fill-rule="nonzero" fill="#959DA1">
            <g id="microphone" transform="translate(5.500000, 3.000000)">
                <path d="M3.9983139,13.3301132 L5.49935935,11.8290678 C5.8123193,11.9397636 6.14912517,12 6.5,12 C8.15685425,12 9.5,10.6568542 9.5,9 C9.5,8.44771525 9.94771525,8 10.5,8 C11.0522847,8 11.5,8.44771525 11.5,9 C11.5,11.4189579 9.78224032,13.4367116 7.5,13.8999819 L7.5,15 L9.5,15 C10.0522847,15 10.5,15.4477153 10.5,16 C10.5,16.5522847 10.0522847,17 9.5,17 L3.5,17 C2.94771525,17 2.5,16.5522847 2.5,16 C2.5,15.4477153 2.94771525,15 3.5,15 L5.5,15 L5.5,13.8999819 C4.9632084,13.7910189 4.45764434,13.5960607 3.9983139,13.3301132 Z M1.61240378,10.0591691 C1.53877151,9.71777547 1.5,9.36341552 1.5,9 C1.5,8.44771525 1.94771525,8 2.5,8 C2.8198642,8 3.10465239,8.15017826 3.28770134,8.38387154 L1.61240378,10.0591691 Z" id="Combined-Shape"></path>
                <path d="M8.5090613,3.16251158 L8.5090613,2.99074787 C8.5090613,1.88617837 7.58790245,0.990747874 6.48333295,0.990747874 C5.37876345,0.990747874 4.50028406,1.88617837 4.50028406,2.99074787 L4.50028406,7.17128881 L8.5090613,3.16251158 Z M8.5090613,8.81936582 L8.5090613,9 C8.5090613,10.1045695 7.58790245,11 6.48333295,11 C6.43304303,11 6.38322177,10.9981439 6.33393074,10.9944964 L8.5090613,8.81936582 Z" id="Combined-Shape"></path>
                <path d="M1.70710678,14.2071068 L11.719599,4.19461458 C12.1101233,3.80409029 12.1101233,3.17092531 11.719599,2.78040102 C11.3290747,2.38987673 10.6959097,2.38987673 10.3053854,2.78040102 L0.292893219,12.7928932 C-0.0976310729,13.1834175 -0.0976310729,13.8165825 0.292893219,14.2071068 C0.683417511,14.5976311 1.31658249,14.5976311 1.70710678,14.2071068 Z" id="Line"></path>
            </g>
        </g>
    </g>
</svg>