<?xml version="1.0" encoding="UTF-8"?>
<svg width="24px" height="24px" viewBox="0 0 24 24" version="1.1" xmlns="http://www.w3.org/2000/svg" xmlns:xlink="http://www.w3.org/1999/xlink">
    <!-- Generator: Sketch 45.2 (43514) - http://www.bohemiancoding.com/sketch -->
    <title>nearby</title>
    <desc>Created with Sketch.</desc>
    <defs></defs>
    <g id="Icons" stroke="none" stroke-width="1" fill="none" fill-rule="evenodd">
        <g id="nearby" fill="#959DA1">
            <g id="nerby" transform="translate(3.000000, 4.000000)">
                <path d="M16.6086656,2.80057943 L16.6086656,14.9602458 C16.6086656,15.6505807 16.112128,15.9452886 15.5025693,15.6142498 L8.2079674,11.6256213 L13.7626775,8.58570469 C14.4368325,8.21833511 14.8284144,7.62488248 14.8445614,6.96279676 C14.8607084,6.30879276 14.5054573,5.71534833 13.8757149,5.32778676 C13.8514944,5.31163973 13.8272738,5.2954927 13.7990165,5.28338242 C13.7949798,5.27934566 13.790943,5.27934566 13.7869062,5.27530891 L13.7788245,5.27127215 L13.7586407,5.25916188 L11.7765434,4.17318376 L15.4985326,2.13850191 C16.112128,1.81553667 16.6086656,2.11024461 16.6086656,2.80057943 L16.6086656,2.80057943 Z M13.2096335,6.28861717 C13.2055967,6.28457221 13.1975232,6.28053545 13.1894497,6.2764987 C13.1773394,6.26842518 13.1652291,6.26438842 13.1531188,6.25631491 L10.4645725,4.78682018 L2.37066787,0.140159091 C1.76514598,-0.190879667 1.26860836,0.103828271 1.26860836,0.794163092 L1.26860836,12.925564 C1.26860836,13.615907 1.76514598,13.9106149 2.37067607,13.579568 L3.40006573,13.0184176 L6.1653187,11.2865172 L13.1531188,7.46744892 C13.7384569,7.14044692 13.7586407,6.6237009 13.2096335,6.28862538 L13.2096335,6.28861717 Z" id="Shape"></path>
            </g>
        </g>
    </g>
</svg>