<?xml version="1.0" encoding="UTF-8"?>
<svg width="24px" height="24px" viewBox="0 0 24 24" version="1.1" xmlns="http://www.w3.org/2000/svg" xmlns:xlink="http://www.w3.org/1999/xlink">
    <!-- Generator: Sketch 45.2 (43514) - http://www.bohemiancoding.com/sketch -->
    <title>notification</title>
    <desc>Created with Sketch.</desc>
    <defs></defs>
    <g id="Icons" stroke="none" stroke-width="1" fill="none" fill-rule="evenodd">
        <g id="notification" stroke="#959DA1" stroke-width="2">
            <g id="icon-notification" transform="translate(4.500000, 4.000000)">
                <path d="M3.5772637,7.03820138 C3.6117027,6.69475473 3.66226591,6.35619481 3.72897797,6.02263277 C3.80093524,5.66284829 3.89719768,5.31389695 4.00811398,5.00467987 C4.14196578,4.59095628 4.3027087,4.21382858 4.49165139,3.87373186 C4.6915526,3.51390982 4.92386432,3.19960591 5.20740333,2.91648735 C5.51264762,2.62577833 5.85418296,2.3993254 6.22857614,2.24208028 C6.61721501,2.07885197 7.04526892,2 7.50643366,2 C7.96759839,2 8.39565231,2.07885197 8.78429118,2.24208028 C9.15868435,2.3993254 9.5002197,2.62577833 9.82291537,2.93351829 C10.089003,3.19960591 10.3213147,3.51390982 10.5212159,3.87373186 C10.7101586,4.21382858 10.8709015,4.59095628 10.9950508,4.97616409 C11.1156696,5.31389695 11.2119321,5.66284829 11.2838897,6.0226347 C11.3530185,6.36828055 11.4048075,6.71929493 11.4278028,6.99298694 C11.4578769,7.15839176 11.4772576,7.36188846 11.489621,7.61534051 C11.5039793,7.90969024 11.5064337,7.96245826 11.5064337,8 C11.5064337,8.3527994 11.5393785,8.69762149 11.6051705,9.03535227 C11.6724725,9.38083699 11.7689559,9.71965092 11.8921266,10.0452562 C11.9961027,10.3138611 12.1437814,10.6114559 12.3358686,10.9361749 L12.6639932,11.4908611 L13.5567263,13 L1.4835277,13 L2.67796566,10.9166782 C2.88138896,10.5618702 3.03136255,10.2642305 3.11802226,10.0523589 C3.24391142,9.71965092 3.34039479,9.38083699 3.4076971,9.03535101 C3.47348885,8.69762149 3.50643366,8.3527994 3.50643366,8 C3.50643366,7.96245826 3.50888801,7.90969024 3.52324635,7.61534039 C3.53450608,7.38451326 3.55158625,7.19512076 3.5772637,7.03820138 Z M1.0214163,13 L6.50643366,13 L6.50643366,14 C6.50643366,14.2868203 6.59635654,14.5038341 6.79947804,14.7069556 C7.00259954,14.9100771 7.21961338,15 7.50643366,15 C7.79325394,15 8.01026778,14.9100771 8.21338928,14.7069556 C8.41651077,14.5038341 8.50643366,14.2868203 8.50643366,14 L8.50643366,13 L14.0064337,13 C14.0481455,13 13.9830157,13.0466764 13.9997334,12.9987521 C14.017206,12.9486641 14.0383753,13.0209404 13.9776,12.971586 L13.9123005,12.9127081 C13.8695831,12.8790554 13.8273006,12.8439013 13.7854261,12.8072618 C13.7267857,12.7559511 13.6689378,12.7017186 13.5841323,12.6157818 C13.4507333,12.4712669 13.3175885,12.3214791 13.1846748,12.1664142 C13.0452435,12.0037433 12.9066996,11.8305635 12.7552002,11.628113 C12.5742777,11.3748213 12.4134774,11.116934 12.2730864,10.8544647 C12.1346508,10.5956504 12.0113796,10.3280615 11.9012127,10.0464783 C11.7771994,9.7240433 11.6808827,9.39470202 11.6124947,9.05897955 C11.5417668,8.71176975 11.5064337,8.35843917 11.5079732,8.05546834 L11.484536,7.63359513 C11.469272,7.3588443 11.4566322,7.15660983 11.4497262,7.06060532 C11.4119373,6.71105391 11.3552479,6.36383117 11.279621,6.01878328 C11.2025933,5.66734428 11.1112365,5.32355437 11.0129086,5.00976377 C10.8656743,4.57726315 10.6900419,4.18037917 10.4864207,3.81838593 C10.2987021,3.48466376 10.0789879,3.19718748 9.81495242,2.94148219 C9.50978925,2.63631944 9.16701789,2.40450297 8.78116534,2.24141057 C8.62222482,2.17422942 8.45605867,2.12108791 8.28195369,2.08194471 L7.50643366,1.90758817 L6.73091363,2.08194471 C6.55680864,2.12108791 6.3906425,2.17422942 6.23170163,2.24141072 C5.84584943,2.40450297 5.50307806,2.63631944 5.18623018,2.95297692 C4.93387937,3.19718748 4.71416526,3.48466376 4.52644659,3.81838593 C4.32282545,4.18037917 4.14719305,4.57726315 4.00730251,4.98732655 C3.90163082,5.32355437 3.81027401,5.66734428 3.73324632,6.01878328 C3.65761943,6.36383117 3.60092999,6.71105391 3.5659882,7.029824 C3.5562351,7.15660983 3.54359535,7.3588443 3.52833133,7.63359503 C3.50880018,7.98515675 3.50880018,7.98515675 3.50643366,8 C3.50643366,8.35843917 3.47110055,8.71176975 3.40037258,9.05897955 C3.33198462,9.39470202 3.23566793,9.7240433 3.10955118,10.0519003 C3.0014877,10.3280615 2.87821647,10.5956504 2.73978048,10.8544654 C2.59938995,11.116934 2.43858958,11.3748213 2.24393462,11.6468736 C2.10616774,11.8305635 1.96762379,12.0037433 1.82818857,12.1664187 C1.69527885,12.3214791 1.56213406,12.4712669 1.40104922,12.6445975 C1.39972595,12.6459208 1.3983958,12.6472479 1.39705872,12.6485788 L1.39705872,12.7078337 L1.0214163,13 Z" id="Shape"></path>
            </g>
        </g>
    </g>
</svg>