<?xml version="1.0" encoding="UTF-8"?>
<svg width="24px" height="24px" viewBox="0 0 24 24" version="1.1" xmlns="http://www.w3.org/2000/svg" xmlns:xlink="http://www.w3.org/1999/xlink">
    <!-- Generator: Sketch 45.2 (43514) - http://www.bohemiancoding.com/sketch -->
    <title>novideo</title>
    <desc>Created with Sketch.</desc>
    <defs></defs>
    <g id="Icons" stroke="none" stroke-width="1" fill="none" fill-rule="evenodd">
        <g id="novideo" fill-rule="nonzero" fill="#959DA1">
            <g transform="translate(4.000000, 6.000000)">
                <path d="M8.68605716,1 L6.21546892,3 L2,3 L2,6.41252246 L3.60822483e-16,8.03157008 L0,2 C-6.76353751e-17,1.44771525 0.44771525,1 1,1 L8.68605716,1 Z M2.69041296,11 L5.1610012,9 L9,9 L9,5.89223906 L11.4284042,3.92638807 L14.291786,1.8228263 C14.9217448,1.36002419 15.9988914,1.68779739 15.9988914,2.34229541 L15.9988914,9.68872514 C15.9988914,10.3432232 14.9217448,10.671004 14.291786,10.2081943 L11,7.78990861 L11,10 C11,10.5522847 10.5522847,11 10,11 L2.69041296,11 Z M11.9627735,6.01551028 L13.9988914,7.51132892 L13.9988914,4.51969164 L11.9627735,6.01551028 Z" id="Combined-Shape"></path>
                <path d="M1.63866943,10.7694812 L11.6386694,2.46948103 C12.0636422,2.11675365 12.1222086,1.48630312 11.7694812,1.06133038 C11.4167538,0.636357631 10.7863033,0.577791196 10.3613306,0.930518584 L0.361330568,9.23051877 C-0.0636421782,9.58324616 -0.122208613,10.2136967 0.230518774,10.6386694 C0.583246162,11.0636422 1.21369669,11.1222086 1.63866943,10.7694812 Z" id="Line-Copy"></path>
            </g>
        </g>
    </g>
</svg>