<?xml version="1.0" encoding="UTF-8"?>
<svg width="24px" height="24px" viewBox="0 0 24 24" version="1.1" xmlns="http://www.w3.org/2000/svg" xmlns:xlink="http://www.w3.org/1999/xlink">
    <!-- Generator: Sketch 45.2 (43514) - http://www.bohemiancoding.com/sketch -->
    <title>ondrive</title>
    <desc>Created with Sketch.</desc>
    <defs></defs>
    <g id="Icons" stroke="none" stroke-width="1" fill="none" fill-rule="evenodd">
        <g id="ondrive" fill="#959DA1">
            <g id="password" transform="translate(4.000000, 4.000000)">
                <path d="M5.03703333,8.59259167 C4.709725,8.59259167 4.44445,8.32730833 4.44445,8 C4.44445,7.67269167 4.709725,7.40740833 5.03703333,7.40740833 C5.36434167,7.40740833 5.62963333,7.67269167 5.62963333,8 C5.62963333,8.32730833 5.36434167,8.59259167 5.03703333,8.59259167 Z M7.97649167,6.81481667 C7.56661667,6.10706667 6.80276667,5.62963333 5.925925,5.62963333 C4.61689167,5.62963333 3.55555833,6.69096667 3.55555833,8 C3.55555833,9.30903333 4.61689167,10.3703667 5.925925,10.3703667 C6.92049167,10.3703667 7.77066667,9.75723333 8.12246667,8.88889167 L8.59259167,8.88889167 L9.18518333,8 L9.777775,8.59259167 L10.3703667,8 L10.9629667,8.59259167 L11.55555,8 L12.14815,8.59259167 L12.7407333,7.7037 L12.14815,6.81481667 L7.97649167,6.81481667 L7.97649167,6.81481667 Z M8,15.4056333 C3.909925,15.4056333 0.594366667,12.090075 0.594366667,8 C0.594366667,3.909925 3.909925,0.594366667 8,0.594366667 C12.090075,0.594366667 15.4056333,3.909925 15.4056333,8 C15.4056333,12.090075 12.090075,15.4056333 8,15.4056333 Z M8,0 C3.58163333,0 0,3.58163333 0,8 C0,12.4183667 3.58163333,16 8,16 C12.4183667,16 16,12.4183667 16,8 C16,3.58163333 12.4183667,0 8,0 Z" id="Shape"></path>
            </g>
        </g>
    </g>
</svg>