<?xml version="1.0" encoding="UTF-8"?>
<svg width="24px" height="24px" viewBox="0 0 24 24" version="1.1" xmlns="http://www.w3.org/2000/svg" xmlns:xlink="http://www.w3.org/1999/xlink">
    <!-- Generator: Sketch 45.2 (43514) - http://www.bohemiancoding.com/sketch -->
    <title>phone</title>
    <desc>Created with Sketch.</desc>
    <defs></defs>
    <g id="Icons" stroke="none" stroke-width="1" fill="none" fill-rule="evenodd">
        <g id="phone" fill="#959DA1">
            <g id="image" transform="translate(4.000000, 5.000000)">
                <path d="M2,2 L2,12 L14,12 L14,2 L2,2 Z M1,0 L15,0 C15.5522847,-1.01453063e-16 16,0.44771525 16,1 L16,13 C16,13.5522847 15.5522847,14 15,14 L1,14 C0.44771525,14 6.76353751e-17,13.5522847 0,13 L0,1 C-6.76353751e-17,0.44771525 0.44771525,1.01453063e-16 1,0 Z" id="Rectangle" fill-rule="nonzero"></path>
                <path d="M8.69964994,10.7597774 L11.0186682,8.42108388 C11.6645277,9.04592059 12.6572347,9.98500099 14.0033736,11.2448502 L14.0033736,10.3766892 L16.0033736,10.3766892 L15.0339672,11.4147961 L16.0033736,11.4824913 L16.0033736,10.3766892 C13.8735288,8.38779476 12.5094605,7.09400647 11.9111687,6.49532434 C11.3128769,5.8966422 10.7332761,5.87623911 10.1723661,6.43411506 L7.29209725,9.33882115 C6.95597807,8.99271978 6.69013062,8.71155418 6.49455492,8.49532434 C5.92664931,7.86744397 5.34704845,7.84704088 4.75575236,8.43411506 L0.45164536,12.7747396 L3.5078572,12.5330489 L5.57932683,10.4440042 C5.67421721,10.5430616 5.77564744,10.6481233 5.88364665,10.7592215 L5.86825914,10.7747396 L5.90095748,10.777023 C6.29454549,11.181627 6.77427903,11.665399 7.34154071,12.2298745 L9.97583274,12.02155 C9.50828682,11.5620082 9.08289255,11.1414174 8.69964994,10.7597774 Z" id="Combined-Shape" fill-rule="nonzero"></path>
                <circle id="Oval" cx="4.5" cy="4.5" r="1.5"></circle>
            </g>
        </g>
    </g>
</svg>