<?xml version="1.0" encoding="UTF-8"?>
<svg width="24px" height="24px" viewBox="0 0 24 24" version="1.1" xmlns="http://www.w3.org/2000/svg" xmlns:xlink="http://www.w3.org/1999/xlink">
    <!-- Generator: Sketch 45.2 (43514) - http://www.bohemiancoding.com/sketch -->
    <title>plane</title>
    <desc>Created with Sketch.</desc>
    <defs></defs>
    <g id="Icons" stroke="none" stroke-width="1" fill="none" fill-rule="evenodd">
        <g id="plane" fill-rule="nonzero" fill="#959DA1">
            <g id="paperplane" transform="translate(4.050000, 4.000000)">
                <path d="M2.5,9 L7.5,9 C8.05228475,9 8.5,8.55228475 8.5,8 C8.5,7.44771525 8.05228475,7 7.5,7 L2.5,7 C1.94771525,7 1.5,7.44771525 1.5,8 C1.5,8.55228475 1.94771525,9 2.5,9 Z" id="Line"></path>
                <path d="M2.10624378,2.01313637 C2.08646297,2.00327988 2.07262321,2 2.06521908,2 C2.02589823,2.01209152 2.01406442,2.02175009 2.00868446,2.0286407 C1.99967041,2.04787735 1.99974429,2.05780856 2.00524768,2.08099752 L3.07979259,6.71878542 C3.08371403,6.7279184 3.38293313,7.13143909 3.9774499,7.92934748 L3.0889452,9.12406584 C3.0822833,9.13468453 3.08073442,9.13861309 3.07631713,9.15815653 L2.00153945,13.810501 C2.00099503,13.8337319 2.0053249,13.8428415 2.00871057,13.8471778 C2.04370345,13.8725495 2.05734115,13.8757625 2.06521908,13.8757625 C2.07013315,13.8757625 5.99807553,11.9213079 13.8490462,8.01239873 C13.8677548,8.00260024 13.8799768,7.98245082 13.8799768,7.95200708 C13.8799768,7.92229315 13.8683163,7.9023884 13.8436301,7.88893232 L2.10624378,2.01313637 Z M2.99070295,0.219332457 L14.7432775,6.10269095 C15.4526906,6.47137398 15.8799768,7.17575759 15.8799768,7.95200708 C15.8799768,8.72826487 15.4527072,9.43265678 14.7649144,9.790318 C14.7595197,9.79311771 10.8340909,11.7488342 2.98862806,15.6574674 C2.70221027,15.800278 2.38295111,15.8757625 2.06521908,15.8757625 C1.74776923,15.8757625 1.42914915,15.8006929 1.14381029,15.6586875 C0.867617553,15.5212219 0.621560515,15.320414 0.432272463,15.0779673 C0.248055442,14.8420274 0.115860059,14.5639009 0.0499781566,14.2736653 C-0.0189081867,13.9702168 -0.0165179136,13.649165 0.0567422975,13.3438491 L1.12763445,8.70800565 C1.17402899,8.4999108 1.25245153,8.30097866 1.36085207,8.11649605 C1.39855003,8.05233669 1.43969302,7.9902648 1.48410053,7.93055272 C1.4403951,7.87190317 1.39985749,7.81095824 1.36266137,7.74797901 C1.25370389,7.56368788 1.17445148,7.36338621 1.12781704,7.15443602 L0.0568667909,2.53245287 C-0.016509614,2.22696269 -0.018941385,1.90569504 0.0499864561,1.60207226 C0.115884958,1.31185326 0.248063741,1.03375162 0.432264163,0.797828349 C0.621552215,0.555389918 0.867584355,0.354582078 1.14376049,0.217116475 C1.42910765,0.0750861142 1.74773603,8.29955943e-06 2.06519418,0 C2.38372297,0 2.70375398,0.0758413741 2.99070295,0.219332457 Z" id="Path-Copy"></path>
            </g>
        </g>
    </g>
</svg>