<?xml version="1.0" encoding="UTF-8"?>
<svg width="24px" height="24px" viewBox="0 0 24 24" version="1.1" xmlns="http://www.w3.org/2000/svg" xmlns:xlink="http://www.w3.org/1999/xlink">
    <!-- Generator: Sketch 45.2 (43514) - http://www.bohemiancoding.com/sketch -->
    <title>plus</title>
    <desc>Created with Sketch.</desc>
    <defs></defs>
    <g id="Icons" stroke="none" stroke-width="1" fill="none" fill-rule="evenodd">
        <g id="plus" fill-rule="nonzero" fill="#959DA1">
            <g transform="translate(4.000000, 4.000000)" id="Combined-Shape">
                <path d="M8.75,7.25 L8.75,2.76632861 C8.75,2.343097 8.41421356,2 8,2 C7.58578644,2 7.25,2.343097 7.25,2.76632861 L7.25,7.25 L2.76632861,7.25 C2.343097,7.25 2,7.58578644 2,8 C2,8.41421356 2.343097,8.75 2.76632861,8.75 L7.25,8.75 L7.25,13.2336714 C7.25,13.656903 7.58578644,14 8,14 C8.41421356,14 8.75,13.656903 8.75,13.2336714 L8.75,8.75 L13.2336714,8.75 C13.656903,8.75 14,8.41421356 14,8 C14,7.58578644 13.656903,7.25 13.2336714,7.25 L8.75,7.25 Z"></path>
            </g>
        </g>
    </g>
</svg>