<?xml version="1.0" encoding="UTF-8"?>
<svg width="24px" height="24px" viewBox="0 0 24 24" version="1.1" xmlns="http://www.w3.org/2000/svg" xmlns:xlink="http://www.w3.org/1999/xlink">
    <!-- Generator: Sketch 45.2 (43514) - http://www.bohemiancoding.com/sketch -->
    <title>powerup</title>
    <desc>Created with Sketch.</desc>
    <defs></defs>
    <g id="Icons" stroke="none" stroke-width="1" fill="none" fill-rule="evenodd">
        <g id="powerup" fill="#959DA1">
            <g transform="translate(13.701525, 10.560155) rotate(-315.000000) translate(-13.701525, -10.560155) translate(6.201525, 2.560155)">
                <path d="M12.4673752,13.0838192 C12.4293631,11.9675929 11.9839459,10.9591527 11.2519068,10.0689515 C10.9771445,9.73482492 10.6816806,9.44243408 10.3877955,9.19597394 C10.2172159,9.05292121 10.0915223,8.96106556 10.0336517,8.92345472 L9.60598978,8.64551179 L9.57989793,8.13613352 C9.5696952,7.93695077 9.54037872,7.5732307 9.48386451,7.10138847 C9.38968929,6.31511107 9.25261878,5.53011962 9.06654251,4.80573434 C8.60523303,3.00988039 7.94976065,2.02889615 7.31496388,2.02889615 C6.68346175,2.02889615 6.0323438,3.01275413 5.57817334,4.8146829 C5.39484913,5.54202473 5.26078246,6.33020684 5.16962803,7.11968108 C5.11492444,7.59346021 5.08700611,7.95870165 5.0775684,8.15878076 L5.05314491,8.67655794 L4.61596651,8.95506245 C4.55445867,8.99424602 4.42276092,9.08845242 4.24466404,9.23443601 C3.93864943,9.48527203 3.63118793,9.78221698 3.34547129,10.1207795 C2.61241893,10.9894167 2.15656155,11.9666947 2.09173431,13.0382536 C2.23845979,12.9468709 2.39890785,12.8245556 2.56672811,12.6836785 C2.7566498,12.5242482 2.9444443,12.3510284 3.11996408,12.1777151 C3.22436627,12.0746253 3.2996009,11.9963965 3.33675993,11.956158 L3.63454693,11.6336928 L5.87656303,11.6383072 L6.16190696,11.8981936 C6.21530703,11.9468294 6.30676781,12.0310003 6.42379893,12.1401877 C6.61884887,12.3221649 6.81405113,12.5077503 6.99734142,12.6868922 C7.04721275,12.735722 7.04721275,12.735722 7.09708823,12.7849346 C7.21844023,12.9049239 7.32786707,13.0156551 7.42523525,13.117631 L8.75343126,11.5620367 L11.0480081,11.6405124 L11.3344741,11.9819327 C11.3703428,12.0246823 11.4428677,12.107642 11.5434973,12.216889 C11.7125161,12.4003817 11.8934335,12.5837225 12.0764042,12.7523164 C12.2131191,12.8782889 12.3446739,12.9900486 12.4673752,13.0838192 Z M8.56653588,14.861014 L8.47327931,14.9565169 C8.39944611,15.0226591 8.3009049,15.0962631 8.17420219,15.1672909 C7.77614183,15.3904382 7.31482419,15.4719254 6.83004044,15.2601156 C6.59218221,15.1561915 6.38798046,14.9899033 6.2243517,14.7745254 C6.14801997,14.6740531 5.95346425,14.4667439 5.69088256,14.207111 C5.64534518,14.1621787 5.64534518,14.1621787 5.5994063,14.117199 C5.43969053,13.961098 5.26829035,13.7978612 5.0959945,13.6367049 L4.49001372,13.6354577 C4.28877694,13.8326116 4.07447109,14.0292681 3.85262048,14.2155012 C3.60354289,14.42459 3.35840509,14.6090876 3.11795062,14.7631294 C2.42997828,15.2038635 1.80977351,15.4036689 1.16937362,15.1765367 C0.323533057,14.8765402 0.0266663565,14.0533484 0.0953843052,12.9174783 C0.188926494,11.371277 0.826316624,10.0048247 1.81700954,8.83089402 C2.27125809,8.292628 2.72639044,7.87235753 3.11449843,7.57110209 C3.13235898,7.35987597 3.15494003,7.1318116 3.18282771,6.89028073 C3.28334326,6.01973142 3.43164005,5.14789 3.63882595,4.32587652 C4.30039867,1.70107584 5.40704844,0.0288961511 7.31496388,0.0288961511 C9.21958466,0.0288961511 10.3321325,1.69394247 11.0036536,4.30813946 C11.214068,5.12727201 11.3657688,5.99604966 11.4696713,6.86354137 C11.4988373,7.10705025 11.5225169,7.33682592 11.541304,7.54939003 C11.9175472,7.84828241 12.3577567,8.26489039 12.7966761,8.79864137 C13.7884492,10.0046938 14.4117326,11.4158295 14.4662141,13.015677 C14.504922,14.1523333 14.2118925,14.9580519 13.3894795,15.2596932 C12.7360772,15.4993455 12.1185977,15.2827201 11.4473182,14.8149819 C11.2089783,14.6489099 10.9668576,14.4495289 10.7211563,14.2231336 C10.5072175,14.0260049 10.3008613,13.8180006 10.1072436,13.6095071 C10.0956014,13.5969704 10.0840053,13.5844319 10.0724563,13.571894 C9.98812205,13.4803377 9.91810653,13.4017912 9.86480962,13.3404649 C9.8485442,13.321749 9.83383592,13.3046369 9.82075298,13.2892484 C9.81638837,13.2841146 10.0542132,13.3957352 10.5342274,13.6241101 L9.16678124,13.5773428 L9.96146601,13.2272601 L8.56653588,14.861014 Z" id="Path-4" fill-rule="nonzero"></path>
                <circle id="Oval" cx="7.26435448" cy="5.20082589" r="1"></circle>
            </g>
        </g>
    </g>
</svg>