<?xml version="1.0" encoding="UTF-8"?>
<svg width="24px" height="24px" viewBox="0 0 24 24" version="1.1" xmlns="http://www.w3.org/2000/svg" xmlns:xlink="http://www.w3.org/1999/xlink">
    <!-- Generator: Sketch 45.2 (43514) - http://www.bohemiancoding.com/sketch -->
    <title>public</title>
    <desc>Created with Sketch.</desc>
    <defs></defs>
    <g id="Icons" stroke="none" stroke-width="1" fill="none" fill-rule="evenodd">
        <g id="public" fill="#959DA1">
            <g transform="translate(3.950000, 4.000000)" id="Combined-Shape">
                <path d="M7.05070471,8.62773845 L7.05070471,7.44575892 C5.67894146,7.3420775 4.349794,6.93398275 3.09640035,6.31560945 C2.22389508,5.88515095 1.57068907,5.45086837 1.19061367,5.14502071 L2.4346938,3.59900837 C2.4939952,3.64672836 2.62610638,3.74424701 2.82287048,3.87506519 C3.16041887,4.09948349 3.54712469,4.32520082 3.97438918,4.53599569 C4.96616841,5.02529911 6.00418271,5.35227639 7.05070471,5.45379203 L7.05070471,0.425938384 L9.05332623,0.425938384 L9.05332623,5.36769624 C9.95186541,5.21064077 10.8827452,4.9049802 11.8120725,4.48624774 C12.3072413,4.2631366 12.7655876,4.02388594 13.1741233,3.78544215 C13.4148712,3.64492849 13.581706,3.5385802 13.6621621,3.48348536 L14.7833633,5.12079945 C14.6650836,5.20179512 14.4583054,5.33360523 14.1744218,5.49929522 C13.7085717,5.77119086 13.1892313,6.04227962 12.6272713,6.29548527 C11.4409092,6.83003143 10.2396828,7.21029027 9.05332623,7.37717596 L9.05332623,8.69632141 C10.2396828,8.8632071 11.4409092,9.24346594 12.6272713,9.7780121 C13.1892313,10.0312178 13.7085717,10.3023065 14.1744218,10.5742021 C14.4583054,10.7398921 14.6650836,10.8717022 14.7833633,10.9526979 L13.6621621,12.590012 C13.581706,12.5349172 13.4148712,12.4285689 13.1741233,12.2880552 C12.7655876,12.0496114 12.3072413,11.8103608 11.8120725,11.5872496 C10.8827452,11.1685172 9.95186541,10.8628566 9.05332623,10.7058011 L9.05332623,15.8258339 L7.05070471,15.8258339 L7.05070471,10.6197053 C6.00418271,10.721221 4.96616841,11.0481983 3.97438918,11.5375017 C3.54712469,11.7482965 3.16041887,11.9740139 2.82287048,12.1984322 C2.62610638,12.3292504 2.4939952,12.426769 2.4346938,12.474489 L1.19061367,10.9284767 C1.57068907,10.622629 2.22389508,10.1883464 3.09640035,9.75788791 C4.349794,9.13951462 5.67894146,8.73141987 7.05070471,8.62773845 Z" fill-rule="nonzero"></path>
                <path d="M16.0500603,7.99231382 C16.0500603,12.4072355 12.4716033,15.9856925 8.05668161,15.9856925 C3.64280019,15.9856925 0.0645662336,12.4070125 0.0645662336,7.99231382 C0.0645662336,3.57780072 3.64261455,0.000198441163 8.05668161,0.000198441163 C12.471789,0.000198441163 16.0500603,3.57757773 16.0500603,7.99231382 Z M14.0656487,7.99231382 C14.0656487,4.67364878 11.3759394,1.98461007 8.05668161,1.98461007 C4.73851945,1.98461007 2.04897787,4.67381639 2.04897787,7.99231382 C2.04897787,11.3111076 4.73881585,14.0012809 8.05668161,14.0012809 C11.375643,14.0012809 14.0656487,11.3112752 14.0656487,7.99231382 Z"></path>
            </g>
        </g>
    </g>
</svg>