<?xml version="1.0" encoding="UTF-8"?>
<svg width="24px" height="24px" viewBox="0 0 24 24" version="1.1" xmlns="http://www.w3.org/2000/svg" xmlns:xlink="http://www.w3.org/1999/xlink">
    <!-- Generator: Sketch 45.2 (43514) - http://www.bohemiancoding.com/sketch -->
    <title>refresh</title>
    <desc>Created with Sketch.</desc>
    <defs></defs>
    <g id="Icons" stroke="none" stroke-width="1" fill="none" fill-rule="evenodd">
        <g id="refresh" fill-rule="nonzero" fill="#959DA1">
            <g id="Group" transform="translate(4.000000, 3.050000)">
                <path d="M11.9251826,5.40510014 C10.3488751,3.01838284 7.20588243,2.25083539 4.72486883,3.7113358 C2.13341644,5.23684832 1.24551928,8.6154997 2.74169501,11.2577649 C4.23787075,13.9000301 7.55154807,14.805337 10.1430005,13.2798245 C10.8503115,12.8634511 11.4436485,12.3020433 11.8956768,11.6324691 C12.2082178,11.1695127 12.8296654,11.0525449 13.2837188,11.3712141 C13.7377722,11.6898834 13.8524907,12.3235163 13.5399496,12.7864727 C12.9204695,13.7040876 12.1068648,14.4739099 11.1410773,15.0424408 C7.59487933,17.1299842 3.06037352,15.8911432 1.01297515,12.2754119 C-1.03442323,8.6596806 0.180593944,4.03626291 3.72679195,1.94871947 C7.13328117,-0.0565814772 11.4517399,1.00756727 13.6015432,4.29952946 L14.0365439,2.91258077 C14.2044425,2.37725609 14.766172,2.08206713 15.291202,2.25325779 C15.816232,2.42444844 16.1057442,2.99719229 15.9378457,3.53251698 L14.4917778,8.14313415 L9.9852415,7.01530928 C9.44990897,6.8813347 9.12245545,6.3302448 9.25385361,5.78441555 C9.38525176,5.23858629 9.92574378,4.90471212 10.4610763,5.03868671 L11.9251826,5.40510014 Z" id="Combined-Shape"></path>
            </g>
        </g>
    </g>
</svg>