<?xml version="1.0" encoding="UTF-8"?>
<svg width="24px" height="24px" viewBox="0 0 24 24" version="1.1" xmlns="http://www.w3.org/2000/svg" xmlns:xlink="http://www.w3.org/1999/xlink">
    <!-- Generator: Sketch 45.2 (43514) - http://www.bohemiancoding.com/sketch -->
    <title>reply</title>
    <desc>Created with Sketch.</desc>
    <defs></defs>
    <g id="Icons" stroke="none" stroke-width="1" fill="none" fill-rule="evenodd">
        <g id="reply">
            <g id="arrow" transform="translate(12.000000, 12.711765) scale(-1, 1) rotate(-180.000000) translate(-12.000000, -12.711765) translate(3.000000, 5.211765)">
                <path d="M4.57505721,9.21132832 L6.17653757,7.58544449 C6.56240794,7.1936942 6.5489167,6.571672 6.14640404,6.19611902 C5.74389138,5.82056604 5.10478065,5.83369655 4.71891028,6.22544684 L0.939515383,10.0624324 L4.70058175,14.0900259 C5.07560781,14.4916281 5.71413346,14.5213012 6.12676869,14.1563025 C6.53940392,13.7913039 6.56989217,13.1698511 6.19486611,12.7682489 L4.708516,11.176569 L9.05435358,11.176569 C13.5970299,11.176569 17.0389212,9.03960468 17.0389212,3.4111891 C17.0389212,2.86850288 16.586901,2.42856878 16.0293059,2.42856878 C15.4717107,2.42856878 15.0196905,2.86850288 15.0196905,3.4111891 C15.0196905,7.72167815 12.6203925,9.21132832 9.05435358,9.21132832 L4.57505721,9.21132832 Z" id="Combined-Shape" fill="#959DA1" fill-rule="nonzero"></path>
                <g id="Group" transform="translate(9.423077, 6.157754) scale(-1, 1) translate(-9.423077, -6.157754) translate(1.346154, 0.917113)"></g>
            </g>
        </g>
    </g>
</svg>