<?xml version="1.0" encoding="UTF-8"?>
<svg width="24px" height="24px" viewBox="0 0 24 24" version="1.1" xmlns="http://www.w3.org/2000/svg" xmlns:xlink="http://www.w3.org/1999/xlink">
    <!-- Generator: Sketch 45.2 (43514) - http://www.bohemiancoding.com/sketch -->
    <title>screenshare</title>
    <desc>Created with Sketch.</desc>
    <defs></defs>
    <g id="Icons" stroke="none" stroke-width="1" fill="none" fill-rule="evenodd">
        <g id="screenshare" fill="#959DA1">
            <g transform="translate(4.000000, 5.000000)" id="Shape">
                <path d="M0,1.90131351 C0,1.42206035 0.447791433,1.0335526 0.999924479,1.0335526 L15.0000755,1.0335526 C15.5523252,1.0335526 16,1.42208422 16,1.90131351 L16,9.71124126 C16,10.1904944 15.5522086,10.5790022 15.0000755,10.5790022 L0.999916146,10.5790022 C0.447674767,10.5790022 0,10.1904706 0,9.71124126 L0,1.90131351 Z M8.52689556,2.67220402 L8.88045371,2.33472465 C9.07571194,2.14833384 9.39226177,2.14830202 9.58752834,2.33469283 L12.8731266,5.47094574 C12.9701849,5.56359229 13.0189932,5.68486722 13.0195432,5.80630921 C13.0204599,5.92956482 12.9716516,6.05308294 12.8731266,6.14713744 L9.58752834,9.28339035 C9.39227844,9.46976525 9.07571194,9.46974934 8.88044537,9.28335853 L8.52689556,8.94587916 C8.33163733,8.75948835 8.33159566,8.4573351 8.52686223,8.27093633 L10.3311113,6.54869859 C8.30208734,6.57474971 6.68332985,6.54869859 2.98333178,7.46677198 C5.80833031,5.09021753 7.91436254,5.13026069 10.3529529,5.09021753 L8.52687056,3.3471389 C8.33162066,3.16076399 8.33163733,2.85859483 8.52689556,2.67220402 L8.52689556,2.67220402 Z M7.49999609,10.5790022 L8.49999557,10.5790022 L8.49999557,12.4880921 L7.49999609,12.4880921 L7.49999609,10.5790022 Z M3.99999792,12.4880921 L11.9999938,12.4880921 L11.9999938,13.442637 L3.99999792,13.442637 L3.99999792,12.4880921 Z"></path>
            </g>
        </g>
    </g>
</svg>