<?xml version="1.0" encoding="UTF-8"?>
<svg width="24px" height="24px" viewBox="0 0 24 24" version="1.1" xmlns="http://www.w3.org/2000/svg" xmlns:xlink="http://www.w3.org/1999/xlink">
    <!-- Generator: Sketch 45.2 (43514) - http://www.bohemiancoding.com/sketch -->
    <title>settings</title>
    <desc>Created with Sketch.</desc>
    <defs></defs>
    <g id="Icons" stroke="none" stroke-width="1" fill="none" fill-rule="evenodd">
        <g id="settings">
            <g id="Icon/Matrix/Large">
                <g id="icon-matrix">
                    <rect id="Rectangle" x="0" y="0" width="24" height="24"></rect>
                    <g id="Group-2" transform="translate(4.000000, 4.000000)" stroke-width="1.5">
                        <rect id="Rectangle-5-Copy-2" stroke="#EDEFF0" x="4.75" y="0.75" width="6.5" height="14.5"></rect>
                        <rect id="Rectangle-5-Copy-3" stroke="#EDEFF0" transform="translate(8.000000, 8.000000) rotate(-90.000000) translate(-8.000000, -8.000000) " x="4.75" y="0.75" width="6.5" height="14.5"></rect>
                        <rect id="Rectangle-5" stroke="#EDEFF0" x="0.75" y="0.75" width="14.5" height="14.5"></rect>
                        <circle id="Oval" stroke="#D6DADC" cx="8" cy="8" r="7.25"></circle>
                    </g>
                </g>
            </g>
            <g transform="translate(3.700000, 3.700000)" id="Combined-Shape" fill-rule="nonzero" fill="#959DA1">
                <path d="M11.3001164,8.29999995 C11.3001164,6.64316629 9.95716626,5.29999995 8.30011645,5.29999995 C6.64389051,5.29999995 5.30104841,6.64327439 5.30104841,8.29999995 C5.30104841,9.95672552 6.64389051,11.3 8.30011645,11.3 C9.95716626,11.3 11.3001164,9.95683362 11.3001164,8.29999995 Z M12.5371819,5.64402282 C12.8567713,6.15280736 13.0872564,6.72322862 13.2067642,7.33339976 L15.4668,7.33339976 C16.0190847,7.33339976 16.4668,7.78111501 16.4668,8.33339976 C16.4668,8.88568451 16.0190847,9.33339976 15.4668,9.33339976 L13.193205,9.33339976 C13.0617562,9.95896125 12.813379,10.5414875 12.4719873,11.0570494 L14.0993858,12.6852723 C14.4898112,13.0758954 14.4896508,13.7090604 14.0990277,14.0994858 C13.7084045,14.4899112 13.0752395,14.4897508 12.6848141,14.0991277 L11.0579046,12.4713939 C10.5284088,12.8221513 9.92823574,13.0747891 9.28329957,13.2033767 L9.28329957,15.4664 C9.28329957,16.0186847 8.83558432,16.4664 8.28329957,16.4664 C7.73101482,16.4664 7.28329957,16.0186847 7.28329957,15.4664 L7.28329957,13.1964892 C6.6918508,13.0742466 6.13860827,12.8474935 5.64372492,12.5363972 L4.08178577,14.0991277 C3.69136038,14.4897508 3.05819542,14.4899112 2.66757225,14.0994858 C2.27694908,13.7090604 2.27678875,13.0758954 2.66721413,12.6852723 L4.19609734,11.1556145 C3.82017847,10.6161756 3.54785449,9.99915188 3.40796119,9.33339976 L1.29979995,9.33339976 C0.747515202,9.33339976 0.299799952,8.88568451 0.299799952,8.33339976 C0.299799952,7.78111501 0.747515202,7.33339976 1.29979995,7.33339976 L3.39440202,7.33339976 C3.52185516,6.68266077 3.77552901,6.07711916 4.12888183,5.54333571 L2.66741413,4.08112765 C2.27698875,3.69050448 2.27714908,3.05733952 2.66777225,2.66691413 C3.05839542,2.27648875 3.69156038,2.27664908 4.08198577,2.66727225 L5.54275385,4.12878034 C6.06291751,3.78409418 6.65129584,3.53413532 7.28329957,3.40351067 L7.28329957,1.30039995 C7.28329957,0.748115202 7.73101482,0.300399952 8.28329957,0.300399952 C8.83558432,0.300399952 9.28329957,0.748115202 9.28329957,1.30039995 L9.28329957,3.39662319 C9.96876165,3.5332909 10.6036583,3.81008848 11.1568768,4.19588356 L12.6847141,2.66727225 C13.0751395,2.27664908 13.7083045,2.27648875 14.0989277,2.66691413 C14.4895508,3.05733952 14.4897112,3.69050448 14.0992858,4.08112765 L12.5371819,5.64402282 Z"></path>
            </g>
        </g>
    </g>
</svg>