<?xml version="1.0" encoding="UTF-8"?>
<svg width="24px" height="24px" viewBox="0 0 24 24" version="1.1" xmlns="http://www.w3.org/2000/svg" xmlns:xlink="http://www.w3.org/1999/xlink">
    <!-- Generator: Sketch 45.2 (43514) - http://www.bohemiancoding.com/sketch -->
    <title>star</title>
    <desc>Created with Sketch.</desc>
    <defs></defs>
    <g id="Icons" stroke="none" stroke-width="1" fill="none" fill-rule="evenodd">
        <g id="star" fill="#959DA1">
            <g transform="translate(4.000000, 4.000000)" id="Shape">
                <path d="M12.0689173,15.9011026 C12.6613062,16.2268709 13.3536715,15.7006934 13.2405315,15.0106991 L12.4631956,10.2716351 L15.7552657,6.91497038 C16.234523,6.42630911 15.9700643,5.5749352 15.3077441,5.4742643 L10.7584162,4.78251035 L8.72410016,0.470835772 C8.4279057,-0.156945257 7.57209264,-0.156945257 7.27589819,0.470835772 L5.24131294,4.78282709 L0.69224587,5.4742643 C0.0299424822,5.5749352 -0.234524665,6.42631791 0.244732669,6.91497038 L3.53649995,10.2717319 L2.75946684,15.0106991 C2.64633526,15.7006934 3.33869211,16.2268709 3.93107262,15.9010938 L8.00033562,13.6633173 L12.0689173,15.9010938 L12.0689173,15.9011026 Z M4.62781174,13.6091633 L5.20003884,10.1192738 C5.24496427,9.84527873 5.15812184,9.56570421 4.96781209,9.371659 L2.54387758,6.89985478 L5.89377515,6.39069333 C6.15678193,6.3507157 6.38414134,6.17792389 6.50175855,5.92862953 L8.00004123,2.75325515 L9.49823979,5.92862953 C9.61585912,6.1779205 9.84321816,6.35070874 10.1062232,6.39068453 L13.456289,6.89999556 L11.0321863,9.371659 C10.8418734,9.56570249 10.7550278,9.84527724 10.7999511,10.1192738 L11.3716146,13.6091194 L8.37575583,11.9616253 C8.14051582,11.8322598 7.85948253,11.8322598 7.62424252,11.9616253 L4.62781174,13.6091633 L4.62781174,13.6091633 Z"></path>
            </g>
        </g>
    </g>
</svg>