<?xml version="1.0" encoding="UTF-8"?>
<svg width="24px" height="24px" viewBox="0 0 24 24" version="1.1" xmlns="http://www.w3.org/2000/svg" xmlns:xlink="http://www.w3.org/1999/xlink">
    <!-- Generator: Sketch 45.2 (43514) - http://www.bohemiancoding.com/sketch -->
    <title>sticker</title>
    <desc>Created with Sketch.</desc>
    <defs></defs>
    <g id="Icons" stroke="none" stroke-width="1" fill="none" fill-rule="evenodd">
        <g id="sticker" fill-rule="nonzero" fill="#959CA0">
            <g transform="translate(5.000000, 5.000000)">
                <path d="M14.9709285,6.40020053 L15.0050437,6.85746989 L6.85757866,15.0049349 L6.40032096,14.97083 C2.23878452,14.6604392 -1.0003,11.1925705 -1.0003,6.9996 C-1.0003,2.58131525 2.58141525,-1.0004 6.9997,-1.0004 C11.1923191,-1.0004 14.6605012,2.2393244 14.9709285,6.40020053 Z M12.9271223,6.1069641 C12.4940601,3.20278215 9.99258866,0.9996 6.9997,0.9996 C3.68598475,0.9996 0.9997,3.68588475 0.9997,6.9996 C0.9997,9.99288932 3.20237133,12.4940593 6.10704834,12.9270381 L12.9271223,6.1069641 Z" id="Stroke-1"></path>
                <path d="M13.7664072,4.95913261 C13.4309718,4.91662881 13.090968,4.8952 12.7487,4.8952 C8.33041525,4.8952 4.7487,8.47691525 4.7487,12.8952 C4.7487,13.2638308 4.77355229,13.628331 4.82300515,13.9883018 L6.80439485,13.7160982 C6.76735138,13.4464562 6.7487,13.1729025 6.7487,12.8952 C6.7487,9.58148475 9.43498475,6.8952 12.7487,6.8952 C13.0069654,6.8952 13.2629976,6.91133648 13.5149928,6.94326739 L13.7664072,4.95913261 Z" id="Stroke-3"></path>
            </g>
        </g>
    </g>
</svg>