<?xml version="1.0" encoding="UTF-8"?>
<svg width="24px" height="24px" viewBox="0 0 24 24" version="1.1" xmlns="http://www.w3.org/2000/svg" xmlns:xlink="http://www.w3.org/1999/xlink">
    <!-- Generator: Sketch 45.2 (43514) - http://www.bohemiancoding.com/sketch -->
    <title>subscribe</title>
    <desc>Created with Sketch.</desc>
    <defs></defs>
    <g id="Icons" stroke="none" stroke-width="1" fill="none" fill-rule="evenodd">
        <g id="subscribe" fill="#959DA1">
            <g id="eye" transform="translate(4.000000, 8.000000)">
                <path d="M3.21608105,5.16820695 C4.52352849,6.22523275 6.02186318,7.00958338 8.00886703,7.00958338 C9.96317021,7.00958338 11.6124454,6.2113417 12.8356453,5.1266542 C13.1188539,4.87551549 13.3708605,4.6121713 13.5915774,4.34589585 C13.3699539,4.09516692 13.1179193,3.84700176 12.8354965,3.60970455 C11.580424,2.55516779 9.99450041,1.99470479 8,1.99470479 C6.02418426,1.99470479 4.46309732,2.58017457 3.20440595,3.68292853 C2.92152889,3.93076037 2.66827476,4.19026421 2.44483038,4.45287547 C2.67349611,4.69652677 2.93068376,4.93747315 3.21608105,5.16820695 Z M0,4.5110483 C0,4.5110483 2.28015237,0.0229187091 8,0.0229187091 C13.7198476,0.0229187091 16,4.3113435 16,4.3113435 C16,4.3113435 13.6777547,9.00123187 8,9.00123187 C2.3222453,9.00123187 0,4.5110483 0,4.5110483 Z" id="Path-3" fill-rule="nonzero"></path>
                <ellipse id="Oval" cx="8" cy="4.52857181" rx="2" ry="1.92857143"></ellipse>
            </g>
        </g>
    </g>
</svg>