<?xml version="1.0" encoding="UTF-8"?>
<svg width="24px" height="24px" viewBox="0 0 24 24" version="1.1" xmlns="http://www.w3.org/2000/svg" xmlns:xlink="http://www.w3.org/1999/xlink">
    <!-- Generator: Sketch 45.2 (43514) - http://www.bohemiancoding.com/sketch -->
    <title>sync</title>
    <desc>Created with Sketch.</desc>
    <defs></defs>
    <g id="Icons" stroke="none" stroke-width="1" fill="none" fill-rule="evenodd">
        <g id="sync">
            <g transform="translate(1.400000, 5.000000)">
                <g id="Group" transform="translate(3.662500, 0.000000)">
                    <path d="M10.9294909,4.45567973 C9.35261399,2.07684587 6.20848577,1.31183366 3.72657583,2.76750997 C3.00476214,3.19086421 2.40165017,3.76464174 1.94630907,4.44958909 C1.63769848,4.91381692 1.01706931,5.03599853 0.560095044,4.72248935 C0.103120774,4.40898017 -0.0171517452,3.77849975 0.291458853,3.31427192 C0.915450631,2.37563161 1.74250478,1.58880409 2.72813837,1.01071564 C6.13585828,-0.987961703 10.4558771,0.0726721076 12.6064571,3.35376079 L13.041615,1.97139326 C13.2095742,1.43783678 13.7715067,1.14362285 14.2967264,1.31424805 C14.8219461,1.48487326 15.1115629,2.05572531 14.9436037,2.58928179 L13.4970134,7.18466988 L8.98884897,6.06057027 C8.45332303,5.92703821 8.12575121,5.37776858 8.25719684,4.83374223 C8.38864246,4.28971588 8.92932975,3.95694451 9.46485569,4.09047657 L10.9294909,4.45567973 Z" id="Combined-Shape" fill="#959DA1" fill-rule="nonzero"></path>
                    <g id="Group-2" transform="translate(8.451875, 1.704762)"></g>
                </g>
                <g id="Group-Copy" transform="translate(9.137499, 9.728571) scale(-1, -1) translate(-9.137499, -9.728571) translate(0.637499, 5.228571)">
                    <path d="M10.9294909,4.64958032 C9.35261399,2.27074646 6.20848577,1.50573425 3.72657583,2.96141056 C3.00476214,3.3847648 2.40165017,3.95854233 1.94630907,4.64348968 C1.63769848,5.10771751 1.01706931,5.22989912 0.560095044,4.91638994 C0.103120774,4.60288076 -0.0171517452,3.97240034 0.291458853,3.50817251 C0.915450631,2.5695322 1.74250478,1.78270468 2.72813837,1.20461623 C6.13585828,-0.794061113 10.4558771,0.266572698 12.6064571,3.54766138 L13.041615,2.16529386 C13.2095742,1.63173737 13.7715067,1.33752344 14.2967264,1.50814864 C14.8219461,1.67877385 15.1115629,2.2496259 14.9436037,2.78318238 L13.4970134,7.37857047 L8.98884897,6.25447086 C8.45332303,6.1209388 8.12575121,5.57166917 8.25719684,5.02764282 C8.38864246,4.48361647 8.92932975,4.1508451 9.46485569,4.28437716 L10.9294909,4.64958032 Z" id="Combined-Shape" fill="#959DA1" fill-rule="nonzero"></path>
                    <g id="Group-2" transform="translate(8.451875, 1.704762)"></g>
                </g>
            </g>
        </g>
    </g>
</svg>