<?xml version="1.0" encoding="UTF-8"?>
<svg width="24px" height="24px" viewBox="0 0 24 24" version="1.1" xmlns="http://www.w3.org/2000/svg" xmlns:xlink="http://www.w3.org/1999/xlink">
    <!-- Generator: Sketch 45.2 (43514) - http://www.bohemiancoding.com/sketch -->
    <title>taco</title>
    <desc>Created with Sketch.</desc>
    <defs></defs>
    <g id="Icons" stroke="none" stroke-width="1" fill="none" fill-rule="evenodd">
        <g id="taco" fill="#959DA1">
            <g transform="translate(4.000000, 4.000000)" id="Shape">
                <path d="M0.767029862,9.42112764 C0.603685851,8.55325836 0.370983998,6.82584042 0.691994332,5.14410244 C1.23218345,2.37416585 2.3117613,0.0533335872 2.76797733,0.0083372811 C3.20159932,-0.0325987691 5.4765015,1.75985831 6.95329244,5.21913797 C7.32837004,5.17423337 7.71480302,5.14937994 8.11217451,5.14410244 C8.50423515,5.14937994 8.89211882,5.17459187 9.27105658,5.21913797 C10.7443625,1.76022515 13.0194398,-0.0325987691 13.4563717,0.0083372811 C13.9091528,0.0533335872 14.988939,2.37416585 15.5240174,5.14410244 C15.8619441,6.8865525 15.5997533,8.67845098 15.4323073,9.51283773 C15.9395392,10.1762685 16.0013267,16.0084384 15.9909051,15.9992424 C15.9879371,15.9992174 15.739978,14.5209091 15.2905735,13.8648985 C14.8376924,13.217592 14.2500642,12.7373646 13.5814309,12.8977739 C14.9315869,9.77229392 12.4657026,8.07015461 10.796779,8.0704881 C9.61353541,8.07015461 8.5437622,8.6674541 8.0704881,9.85466626 C7.44580064,8.5410776 6.51095799,8.08833822 5.32752262,8.08716266 C3.65900757,8.08833822 1.30638525,9.77233561 2.66792995,12.9061111 C1.90324287,12.843915 1.52883225,13.0170887 0.983799171,13.6981528 C0.442734639,14.3872291 0.00190923872,15.9902715 1.35285225e-09,15.9992424 C-5.83596148e-05,11.8614665 0.200494937,10.5020811 0.767029862,9.42112764 Z M11.2636668,5.06072963 C10.9685103,4.14668849 12.6222184,0.740142129 13.3313125,0.600284239 C13.8074963,0.511950746 14.5020668,2.41250901 15.0571297,5.00236866 C15.6109502,7.59011064 14.969188,8.62074865 14.9737569,8.62074865 C14.969188,8.62074865 14.8006082,7.22517951 13.4230226,6.28630995 C12.0309801,5.36180552 11.5630002,5.97747204 11.2636668,5.06072963 Z M4.96068225,5.06072963 C5.25565526,4.14626329 3.60308109,0.740125455 2.89303654,0.600284239 C2.41887035,0.511959083 1.72439151,2.41229224 1.16721935,5.00236866 C0.616433554,7.58927691 1.17491467,9.0876364 1.17555664,9.0876364 C1.17491467,9.0876364 1.42635039,7.2243958 2.80966373,6.28630995 C4.19438607,5.36123025 4.66197415,5.97683007 4.96068225,5.06072963 Z"></path>
                <path d="M9.66290879,14.3401235 C9.66290879,14.7642076 9.52852849,15.3822836 8.2038846,15.3822836 C6.90468609,15.3822836 6.73652313,14.7641659 6.73652313,14.3401235 C6.73652313,13.922409 6.97183455,13.5814309 8.2038846,13.5814309 C9.49478752,13.5814309 9.66290879,13.922409 9.66290879,14.3401235 Z M6.09455248,10.913501 C6.09455248,10.2171712 5.70977862,9.65457151 5.23581253,9.65457151 C4.76167135,9.65457151 4.37707258,10.2171712 4.37707258,10.913501 C4.37707258,11.6045782 4.76167135,11.7472291 5.23581253,11.7472291 C5.70977862,11.747179 6.09455248,11.6045782 6.09455248,10.913501 Z M11.7639036,10.9218382 C11.7639036,10.2215316 11.3754864,9.65457151 10.8968264,9.65457151 C10.4180747,9.65457151 10.0297492,10.2215316 10.0297492,10.9218382 C10.0297492,11.620294 10.4180747,11.7639036 10.8968264,11.7639036 C11.3754864,11.7639036 11.7639036,11.620294 11.7639036,10.9218382 Z"></path>
            </g>
        </g>
    </g>
</svg>