<?xml version="1.0" encoding="UTF-8"?>
<svg width="24px" height="24px" viewBox="0 0 24 24" version="1.1" xmlns="http://www.w3.org/2000/svg" xmlns:xlink="http://www.w3.org/1999/xlink">
    <!-- Generator: Sketch 45.2 (43514) - http://www.bohemiancoding.com/sketch -->
    <title>team</title>
    <desc>Created with Sketch.</desc>
    <defs></defs>
    <g id="Icons" stroke="none" stroke-width="1" fill="none" fill-rule="evenodd">
        <g id="team" fill="#959DA1">
            <g transform="translate(3.500000, 3.500000)">
                <path d="M3.66945121,9.32630387 C2.9468405,8.60261463 2.5,7.60348991 2.5,6.5 C2.5,4.290861 4.290861,2.5 6.5,2.5 C8.709139,2.5 10.5,4.290861 10.5,6.5 C10.5,7.60348991 10.0531595,8.60261463 9.33054879,9.32630387 C11.2169149,10.5058977 12.5,12.8278724 12.5,15.5 L0.5,15.5 C0.5,12.8278724 1.78308514,10.5058977 3.66945121,9.32630387 Z M6.5,10.5 C4.90692422,10.5 3.46406388,11.7115435 2.83430975,13.5 L10.1656902,13.5 C9.53593612,11.7115435 8.09307578,10.5 6.5,10.5 Z M6.5,8.5 C7.6045695,8.5 8.5,7.6045695 8.5,6.5 C8.5,5.3954305 7.6045695,4.5 6.5,4.5 C5.3954305,4.5 4.5,5.3954305 4.5,6.5 C4.5,7.6045695 5.3954305,8.5 6.5,8.5 Z" id="Combined-Shape" fill-rule="nonzero"></path>
                <path d="M11.5259048,6.49734837 L11.5259048,8.54233741 C13.2287268,8.88743833 14.2319372,9.88424274 14.535536,11.5327506 C14.535536,11.5327506 14.2007275,11.5327506 13.5311104,11.5327506 L13.5311104,13.5057203 L16.5064872,13.5057203 C16.3839169,10.3148119 15.3100576,8.30942149 13.2849093,7.48954915 C13.2849093,7.48954915 14.5113815,6.54465639 14.5113815,4.47417959 C14.5113815,2.40370278 13.3660499,0.401690396 10.4846611,0.531799578 C10.4863235,0.531799578 9.19873047,0.63655599 8.7271181,1.26774669 C9.47094258,1.43321591 10.0567903,1.84139189 10.4846611,2.49227463 C11.8440274,2.47277242 12.5237105,3.13540915 12.5237105,4.48018484 C12.5237105,5.82496052 12.1911086,6.49734837 11.5259048,6.49734837 Z" id="Path-2"></path>
            </g>
        </g>
    </g>
</svg>