<?xml version="1.0" encoding="UTF-8"?>
<svg width="24px" height="24px" viewBox="0 0 24 24" version="1.1" xmlns="http://www.w3.org/2000/svg" xmlns:xlink="http://www.w3.org/1999/xlink">
    <!-- Generator: Sketch 45.2 (43514) - http://www.bohemiancoding.com/sketch -->
    <title>trash</title>
    <desc>Created with Sketch.</desc>
    <defs></defs>
    <g id="Icons" stroke="none" stroke-width="1" fill="none" fill-rule="evenodd">
        <g id="trash" fill-rule="nonzero" fill="#959DA1">
            <g transform="translate(3.500000, 4.000000)">
                <path d="M5.5,7 L5.5,11 C5.5,11.5522847 5.94771525,12 6.5,12 C7.05228475,12 7.5,11.5522847 7.5,11 L7.5,7 C7.5,6.44771525 7.05228475,6 6.5,6 C5.94771525,6 5.5,6.44771525 5.5,7 Z" id="Path-13"></path>
                <path d="M9.5,7 L9.5,11 C9.5,11.5522847 9.94771525,12 10.5,12 C11.0522847,12 11.5,11.5522847 11.5,11 L11.5,7 C11.5,6.44771525 11.0522847,6 10.5,6 C9.94771525,6 9.5,6.44771525 9.5,7 Z" id="Path-13-Copy"></path>
                <path d="M4.5,2 L1.5,2 C0.94771525,2 0.5,2.44771525 0.5,3 C0.5,3.55228475 0.94771525,4 1.5,4 L15.5,4 C16.0522847,4 16.5,3.55228475 16.5,3 C16.5,2.44771525 16.0522847,2 15.5,2 L12.5,2 C12.5,0.8954305 11.6045695,0 10.5,0 L6.5,0 C5.3954305,0 4.5,0.8954305 4.5,2 Z" id="Combined-Shape"></path>
                <path d="M4.38813722,14.0021357 L3.46145981,5.84053851 C3.39804533,5.29190653 2.90188364,4.89856003 2.35325166,4.9619745 C1.80461968,5.02538898 1.41127318,5.52155067 1.47468766,6.07018265 L2.61929104,15.9727482 L14.4004315,15.9727482 L15.4926303,6.03483363 C15.5529644,5.48585436 15.1568391,4.99190832 14.6078598,4.93157428 C14.0588806,4.87124025 13.5649345,5.26736548 13.5046005,5.81634476 L12.5948971,14.0021357 L4.38813722,14.0021357 Z" id="Path-12"></path>
            </g>
        </g>
    </g>
</svg>