<?xml version="1.0" encoding="UTF-8"?>
<svg width="24px" height="24px" viewBox="0 0 24 24" version="1.1" xmlns="http://www.w3.org/2000/svg" xmlns:xlink="http://www.w3.org/1999/xlink">
    <!-- Generator: Sketch 45.2 (43514) - http://www.bohemiancoding.com/sketch -->
    <title>trelloicon</title>
    <desc>Created with Sketch.</desc>
    <defs></defs>
    <g id="Icons" stroke="none" stroke-width="1" fill="none" fill-rule="evenodd">
        <g id="trelloicon" fill="#959DA1">
            <g id="icon-boards" transform="translate(4.000000, 4.000000)">
                <path d="M0,2 L0,14 C0,14.5520832 0.195312533,15.0234373 0.5859376,15.4140624 C0.976562667,15.8046875 1.4479168,16 2,16 L14,16 C14.5520832,16 15.0234373,15.8046875 15.4140624,15.4140624 C15.8046875,15.0234373 16,14.5520832 16,14 L16,2 C16,1.4479168 15.8046875,0.976562667 15.4140624,0.5859376 C15.0234373,0.195312533 14.5520832,0 14,0 L2,0 C1.4479168,0 0.976562667,0.195312533 0.5859376,0.5859376 C0.195312533,0.976562667 0,1.4479168 0,2 L0,2 Z M2,3 C2,2.71874987 2.09635413,2.48177067 2.2890624,2.2890624 C2.48177067,2.09635413 2.71874987,2 3,2 L6,2 C6.28125013,2 6.51822933,2.09635413 6.7109376,2.2890624 C6.90364587,2.48177067 7,2.71874987 7,3 L7,12 C7,12.2812501 6.90364587,12.5182293 6.7109376,12.7109376 C6.51822933,12.9036459 6.28125013,13 6,13 L3,13 C2.71874987,13 2.48177067,12.9036459 2.2890624,12.7109376 C2.09635413,12.5182293 2,12.2812501 2,12 L2,3 Z M10,2 L13,2 C13.2812501,2 13.5182293,2.09635413 13.7109376,2.2890624 C13.9036459,2.48177067 14,2.71874987 14,3 L14,8.76562507 C14,9.03645813 13.9036459,9.27083307 13.7109376,9.46874987 C13.5182293,9.66666667 13.2812501,9.76562507 13,9.76562507 L10,9.76562507 C9.71874987,9.76562507 9.48177067,9.66666667 9.2890624,9.46874987 C9.09635413,9.27083307 9,9.03645813 9,8.76562507 L9,3 C9,2.71874987 9.09635413,2.48177067 9.2890624,2.2890624 C9.48177067,2.09635413 9.71874987,2 10,2 L10,2 Z" id="Shape"></path>
            </g>
        </g>
    </g>
</svg>