<?xml version="1.0" encoding="UTF-8"?>
<svg width="24px" height="24px" viewBox="0 0 24 24" version="1.1" xmlns="http://www.w3.org/2000/svg" xmlns:xlink="http://www.w3.org/1999/xlink">
    <!-- Generator: Sketch 45.2 (43514) - http://www.bohemiancoding.com/sketch -->
    <title>twitter</title>
    <desc>Created with Sketch.</desc>
    <defs></defs>
    <g id="Icons" stroke="none" stroke-width="1" fill="none" fill-rule="evenodd">
        <g id="twitter" fill="#959DA1">
            <path d="M18.3583333,9.225 C18.3666667,9.425 18.375,9.575 18.375,9.66666667 C18.375,11.425 17.875,13.2166667 16.8166667,14.825 C15.7583333,16.4333333 14.35,17.7083333 12.3083333,18.4416667 C11.2833333,18.8166667 10.1916667,19 9.025,19 C7.2,19 5.525,18.5083333 4,17.525 C4.35833333,17.5583333 4.61666667,17.575 4.78333333,17.575 C6.30833333,17.575 7.65833333,17.1083333 8.85,16.1666667 C7.425,16.1333333 6.21666667,15.1916667 5.78333333,13.8833333 C5.975,13.925 6.18333333,13.9416667 6.40833333,13.9416667 C6.7,13.9416667 6.98333333,13.9083333 7.25833333,13.8333333 C5.75833333,13.525 4.64166667,12.1916667 4.64166667,10.6166667 L4.64166667,10.5666667 C5.1,10.825 5.6,10.9666667 6.125,10.9833333 C5.225,10.375 4.66666667,9.36666667 4.66666667,8.24166667 C4.66666667,7.65 4.81666667,7.10833333 5.10833333,6.60833333 C6.76666667,8.61666667 9.18333333,9.89166667 11.875,10.025 C11.825,9.81666667 11.8,9.56666667 11.8,9.275 C11.8,7.46666667 13.2666667,6 15.075,6 C16.0166667,6 16.8083333,6.34166667 17.4666667,7.03333333 C18.2333333,6.875 18.9333333,6.60833333 19.5583333,6.23333333 C19.3166667,6.99166667 18.7833333,7.65 18.1083333,8.05833333 C18.7416667,7.98333333 19.375,7.80833333 20,7.53333333 C19.5416667,8.20833333 19,8.775 18.3583333,9.225 Z" id="Shape"></path>
        </g>
    </g>
</svg>