<?xml version="1.0" encoding="UTF-8"?>
<svg width="24px" height="24px" viewBox="0 0 24 24" version="1.1" xmlns="http://www.w3.org/2000/svg" xmlns:xlink="http://www.w3.org/1999/xlink">
    <!-- Generator: Sketch 45.2 (43514) - http://www.bohemiancoding.com/sketch -->
    <title>video</title>
    <desc>Created with Sketch.</desc>
    <defs></defs>
    <g id="Icons" stroke="none" stroke-width="1" fill="none" fill-rule="evenodd">
        <g id="video" fill-rule="nonzero" fill="#959DA1">
            <g transform="translate(4.000000, 7.000000)" id="Combined-Shape">
                <path d="M11,3.24111195 L14.291786,0.822826302 C14.9217448,0.360024186 15.9988914,0.687797393 15.9988914,1.34229541 L15.9988914,8.68872514 C15.9988914,9.34322316 14.9217448,9.67100402 14.291786,9.20819425 L11,6.78990861 L11,9 C11,9.55228475 10.5522847,10 10,10 L1,10 C0.44771525,10 6.76353751e-17,9.55228475 0,9 L0,1 C-6.76353751e-17,0.44771525 0.44771525,1.01453063e-16 1,0 L10,0 C10.5522847,-1.01453063e-16 11,0.44771525 11,1 L11,3.24111195 Z M2,2 L2,8 L9,8 L9,2 L2,2 Z M11.9627735,5.01551028 L13.9988914,6.51132892 L13.9988914,3.51969164 L11.9627735,5.01551028 Z"></path>
            </g>
        </g>
    </g>
</svg>