<?xml version="1.0" encoding="UTF-8"?>
<svg width="24px" height="24px" viewBox="0 0 24 24" version="1.1" xmlns="http://www.w3.org/2000/svg" xmlns:xlink="http://www.w3.org/1999/xlink">
    <!-- Generator: Sketch 45.2 (43514) - http://www.bohemiancoding.com/sketch -->
    <title>vote</title>
    <desc>Created with Sketch.</desc>
    <defs></defs>
    <g id="Icons" stroke="none" stroke-width="1" fill="none" fill-rule="evenodd">
        <g id="vote" fill="#959DA1">
            <g transform="translate(4.000000, 4.000000)" id="Fill-1">
                <path d="M5.01309032,3.10122025 C5.01309032,3.19322025 5.00642366,3.62027737 5.01309032,3.74827737 C5.04509032,4.36561071 4.764,4.6340001 4.26,5.06866676 C3.41866667,5.7940001 2.744,6.49933343 2.28666667,7.01133343 L2,7.01133343 L0,7.01133343 L0,9.01133343 L0,12.8420001 L0,15.0205666 L2.00933333,15.0112333 L2.664,15.0085666 L4.23466667,15.0085666 C4.27866667,15.0432333 4.32266667,15.1116566 4.36933333,15.1503233 C4.87466667,15.5609899 5.816,15.93605 7.34666667,15.93605 L10.4613333,15.93605 C12.436,15.93605 13.6826667,14.9486668 13.8786667,13.7020001 C14.4866667,13.1966668 14.8586667,12.4766668 14.9506667,11.7620001 L14.964,11.6593334 C15.6687823,11.124988 16.001253,10.461005 16.001253,9.61167162 C16.001253,8.66233829 15.607167,7.83979235 14.9493333,7.39133343 C14.8066667,6.0300001 13.7133333,5.03933343 12.2973333,5.03933343 L11.015756,5.03933343 L11.015756,3.42733343 C11.015756,1.52866676 9.70666667,0.0185263965 8,0.0185263965 C6.26533333,0.0185263965 5.01309032,1.30655359 5.01309032,3.10122025 Z M8,2.1500001 C8.76666667,2.1500001 9.01829869,2.89933343 9.01829869,3.42733343 L9.01829869,6.37933343 L8.20496535,6.98145581 L12.2973333,6.98145581 C12.372,6.98145581 13.0123758,7.04964516 13.0123758,7.68831182 L13.0123758,8.51519391 C13.0177092,8.51519391 14.0171559,8.50767162 14.0171559,9.61167162 C14.0171559,10.4476716 13.0123758,10.6500001 13.0123758,10.6500001 L13.0123758,11.5086668 C13.0123758,11.5086668 12.9510557,12.3900001 12.004389,12.3900001 L12.004389,13.3580001 C12.004389,13.6220001 11.4306667,14.0114784 10.4613333,14.0114784 L7.34666667,14.0114784 C5.84133333,14.0114784 5.52,13.0383233 4.46,13.0383233 L2.65333333,13.0383233 L2,13.0409899 L2,9.01133343 L3.21733333,9.01133343 C3.21733333,9.01133343 4.10933333,7.8380001 5.56533333,6.58466676 C7.02133333,5.33133343 6.99442271,3.77933343 6.99442271,3.2500001 C6.99442271,2.72333343 7.11693853,2.1500001 7.88493853,2.1500001"></path>
            </g>
        </g>
    </g>
</svg>